<svg width="54" height="54" viewBox="0 0 54 54" fill="none" xmlns="http://www.w3.org/2000/svg">
<g clip-path="url(#clip0_106_328)">
<path d="M26.9916 41.0974C23.9507 37.2836 22.167 33.9424 21.568 31.077C20.979 28.7651 21.2068 26.919 22.2278 25.5319C23.2993 23.9321 24.8906 23.1592 26.9916 23.1592C29.0925 23.1592 30.6923 23.9321 31.7638 25.5504C32.7662 26.9224 33.021 28.7668 32.4051 31.0955C31.7453 34.0132 29.9616 37.3528 26.9815 41.1159L26.9916 41.0974ZM48.5865 43.664C48.1731 46.467 46.2662 48.7873 43.6388 49.9213C38.5763 52.1269 33.5576 48.6118 29.268 43.8395C36.3606 34.9532 37.6785 28.0361 34.6292 23.5625C32.8455 20.9959 30.2788 19.7488 26.9916 19.7488C20.3732 19.7488 16.735 25.3479 18.1677 31.8515C18.9945 35.3767 21.2085 39.3744 24.7236 43.848C22.518 46.283 20.4255 48.0229 18.5794 49.0944C17.1467 49.8673 15.7765 50.3432 14.4653 50.4562C8.44427 51.3523 3.7159 45.5169 5.86071 39.4875C6.1594 38.7045 6.75678 37.2819 7.76759 35.0747L7.8199 34.9515C11.1156 27.8066 15.115 19.6847 19.7033 10.6768L19.8265 10.3781L21.1275 7.87385C22.1468 6.01929 22.5602 5.19242 24.1684 4.17317C24.9514 3.70742 25.8998 3.46948 26.9713 3.46948C29.1162 3.46948 30.7851 4.71823 31.5073 5.72904C31.8583 6.26567 32.2802 6.98623 32.8168 7.87385L34.074 10.3258L34.2495 10.6768C38.8378 19.6864 42.8457 27.7897 46.1228 34.9515L46.1751 35.0122L47.38 37.7544L48.0921 39.4774C48.6371 40.8493 48.7603 42.2195 48.5747 43.6522L48.5865 43.664ZM51.3287 38.2944C50.9153 36.9765 50.1947 35.429 49.3071 33.5829V33.512C45.0613 24.5025 41.116 16.3991 37.3714 9.1226L37.125 8.76148C34.4537 3.28554 32.5451 -0.00170898 26.9916 -0.00170898C21.5072 -0.00170898 19.1785 3.81204 16.7957 8.76992L16.6118 9.13104C12.8588 16.3991 8.92184 24.5126 4.68453 33.5205V33.6437L3.42734 36.3859C2.96159 37.5199 2.71521 38.1088 2.65446 38.2927C-0.386412 46.6425 5.87928 53.973 13.4561 53.973C13.5169 53.973 13.7548 53.973 14.0451 53.9207H14.8888C18.8258 53.438 22.8775 50.9321 26.9916 46.4585C31.1057 50.9321 35.1743 53.4364 39.1028 53.9207H39.9381C40.2368 53.973 40.4747 53.973 40.5355 53.973C48.1123 53.9814 54.3696 46.6425 51.3287 38.2927V38.2944Z" fill="#F26440"/>
</g>
<defs>
<clipPath id="clip0_106_328">
<rect width="54" height="54" fill="white"/>
</clipPath>
</defs>
</svg>
