<svg width="54" height="54" viewBox="0 0 54 54" fill="none" xmlns="http://www.w3.org/2000/svg">
<path d="M43.5059 40.5474C43.3318 40.5 43.1209 40.5264 42.8783 40.616C39.6299 42.1031 36.4711 43.1631 33.402 43.7906C26.7733 45.1406 20.3133 44.434 14.0274 41.676C12.2819 40.906 9.85608 39.6088 6.75003 37.7736C6.67 37.7104 6.57236 37.6736 6.47054 37.6681C6.36507 37.6629 6.27542 37.6734 6.19105 37.7156C6.10667 37.7578 6.04339 37.8105 5.99593 37.8791C5.94847 37.9476 5.93792 38.0426 5.97483 38.1639C6.00648 38.2799 6.08558 38.4117 6.21741 38.5541C6.76585 39.1974 7.44612 39.883 8.25296 40.6107C9.05979 41.3385 10.1303 42.1611 11.4645 43.0787C12.7987 43.9963 14.1961 44.8137 15.6463 45.5256C17.1018 46.2375 18.7893 46.8387 20.7141 47.3238C22.6389 47.809 24.5637 48.0516 26.4832 48.0516C28.3922 48.0516 30.2485 47.8564 32.0467 47.4767C33.8502 47.0918 35.369 46.6383 36.6082 46.1109C37.8422 45.5889 38.9813 45.0035 40.0254 44.3707C41.0695 43.7379 41.8395 43.2 42.3404 42.7728C42.8414 42.3404 43.2 42.0029 43.4057 41.7498C43.6483 41.4492 43.7695 41.1908 43.7695 40.964C43.7748 40.7267 43.6799 40.5896 43.5059 40.5474V40.5474ZM27.8121 18.3568C27.0106 18.4254 26.0455 18.573 24.9117 18.7945C23.778 19.0107 22.7285 19.2849 21.7582 19.6066C20.7879 19.9283 19.7965 20.3765 18.7893 20.9461C17.7768 21.5156 16.9172 22.1695 16.2053 22.8972C15.4934 23.625 14.9133 24.5373 14.4598 25.6394C14.0063 26.7363 13.7795 27.9439 13.7795 29.2623C13.7795 30.6914 14.0274 31.9623 14.5336 33.0855C15.0346 34.2088 15.7043 35.0894 16.5481 35.7433C17.3865 36.3973 18.341 36.9088 19.3957 37.2832C20.4504 37.6576 21.5684 37.8264 22.7285 37.7789C23.8887 37.7314 25.0225 37.5521 26.1246 37.2357C27.2215 36.9246 28.2551 36.4236 29.2149 35.7433C30.1746 35.0631 30.9604 34.2562 31.5774 33.3334C31.8041 33.6814 32.0045 33.9398 32.1838 34.1086L32.6426 34.5779C32.9485 34.889 33.4178 35.3478 34.0506 35.9543C34.6781 36.5607 35.3215 37.1514 35.9649 37.7314L41.4703 32.4633L41.1539 32.2049C40.9272 32.0308 40.6582 31.783 40.3524 31.4508C40.0465 31.1238 39.7406 30.7599 39.4453 30.3697C39.1447 29.9795 38.8863 29.5207 38.6701 29.0039C38.4539 28.4871 38.3432 27.9861 38.3432 27.501V13.6424C38.3432 13.1097 38.243 12.5349 38.0426 11.9127C37.8369 11.2957 37.4783 10.6207 36.951 9.89295C36.4236 9.16521 35.7697 8.5113 34.9893 7.94177C34.2035 7.37224 33.1594 6.88709 31.8463 6.49685C30.5385 6.10662 29.0725 5.9115 27.4588 5.9115C25.8082 5.9115 24.2737 6.10662 22.8393 6.4863C21.4102 6.87127 20.1867 7.38279 19.1637 8.02615C18.1459 8.66951 17.2705 9.41306 16.5428 10.2621C15.8151 11.1111 15.2719 11.997 14.9186 12.9199C14.5653 13.8428 14.386 14.7761 14.386 15.7201L21.5156 16.3476C21.8057 15.4828 22.1959 14.734 22.6758 14.0906C23.161 13.4472 23.6197 12.9832 24.0363 12.6931C24.4582 12.4031 24.9117 12.1711 25.3916 11.997C25.8768 11.823 26.2037 11.7334 26.3725 11.7123C26.5412 11.6965 26.6731 11.6912 26.7733 11.6912C28.1813 11.6912 29.1569 12.1078 29.7053 12.9357C30.0481 13.4367 30.2168 14.1961 30.2168 15.2191V18.2039C29.4153 18.2355 28.6137 18.2883 27.8121 18.3568V18.3568ZM30.2221 26.3672C30.2221 27.2426 30.1061 28.0388 29.8793 28.7402C29.3942 30.2748 28.4713 31.2398 27.116 31.6301C25.9348 31.9781 24.8115 31.8041 23.7463 31.1133C22.6125 30.375 22.0483 29.3308 22.0483 27.9861C22.0483 26.9367 22.3119 26.0402 22.8393 25.2914C23.3666 24.5478 24.068 23.9888 24.9487 23.6197C25.8293 23.2506 26.6889 22.9869 27.5326 22.834C28.3711 22.6758 29.2729 22.5808 30.2221 22.5492V26.3672V26.3672ZM47.8986 37.9107C47.6719 37.626 47.0602 37.4414 46.0582 37.3465C45.0563 37.2515 44.1861 37.2568 43.4373 37.3676C42.6305 37.4625 41.7973 37.6945 40.943 38.0742C40.0834 38.4486 39.709 38.765 39.8039 39.0129L39.8408 39.0814L39.8883 39.1183L39.9621 39.1289H40.2047C40.2469 39.1289 40.2996 39.1236 40.3735 39.1183C40.4473 39.1131 40.5158 39.1025 40.5791 39.0973C40.6424 39.092 40.732 39.0814 40.8481 39.0762C40.9588 39.0709 41.0643 39.0551 41.1645 39.0392C41.1803 39.0392 41.3596 39.0234 41.7076 38.9918C42.0557 38.9601 42.3088 38.939 42.4617 38.9232C42.6147 38.9074 42.8731 38.8916 43.2264 38.8758C43.5797 38.8599 43.8645 38.8599 44.0754 38.8758C44.2863 38.8916 44.5236 38.9127 44.7926 38.9338C45.0615 38.9549 45.2777 39.0023 45.4465 39.0762C45.6152 39.1447 45.7418 39.2344 45.8209 39.3451C46.0951 39.6931 46.0424 40.4631 45.6627 41.6601C45.283 42.8572 44.9244 43.8117 44.5869 44.5183C44.4393 44.8189 44.4393 45.0035 44.5869 45.0826C44.7346 45.1617 44.9402 45.0879 45.2145 44.8717C46.0371 44.2283 46.7227 43.258 47.2764 41.9555C47.5981 41.1855 47.8301 40.384 47.9672 39.5455C48.0938 38.707 48.0727 38.1639 47.8986 37.9107V37.9107Z" fill="#F26440"/>
</svg>
