<svg width="54" height="54" viewBox="0 0 54 54" fill="none" xmlns="http://www.w3.org/2000/svg">
<path d="M48.276 22.8465C48.5528 24.3293 48.7035 25.8795 48.7035 27.4973C48.7035 40.1513 40.2345 49.149 27.4433 49.149C24.5344 49.1499 21.6538 48.5776 18.9661 47.4648C16.2785 46.352 13.8365 44.7206 11.7796 42.6637C9.72266 40.6068 8.09121 38.1648 6.97844 35.4771C5.86566 32.7895 5.29336 29.9089 5.29425 27C5.29336 24.0911 5.86566 21.2106 6.97844 18.5229C8.09121 15.8353 9.72266 13.3932 11.7796 11.3363C13.8365 9.27943 16.2785 7.64798 18.9661 6.5352C21.6538 5.42242 24.5344 4.85013 27.4433 4.85101C33.4238 4.85101 38.421 7.05151 42.255 10.6245L36.0112 16.8683V16.8525C33.687 14.6385 30.7373 13.5023 27.4433 13.5023C20.1353 13.5023 14.1953 19.6763 14.1953 26.9865C14.1953 34.2945 20.1353 40.482 27.4433 40.482C34.074 40.482 38.5875 36.6908 39.5145 31.4843H27.4433V22.8465H48.2783H48.276Z" fill="#F26440"/>
</svg>
