<svg width="52" height="54" viewBox="0 0 52 54" fill="none" xmlns="http://www.w3.org/2000/svg">
<path d="M47.0556 38.07V44.82C47.058 45.4466 46.936 46.0669 46.6973 46.641C46.4587 47.2152 46.1087 47.7305 45.6697 48.1542C45.2308 48.5778 44.7126 48.9003 44.1483 49.1011C43.584 49.3018 42.9861 49.3764 42.3928 49.32C35.8111 48.5677 29.4889 46.2018 23.9342 42.4125C18.7662 38.958 14.3848 34.3489 11.1008 28.9125C7.48607 23.0427 5.23653 16.3597 4.53445 9.40497C4.481 8.78277 4.55129 8.15568 4.74085 7.56363C4.93041 6.97157 5.23509 6.42752 5.63548 5.96612C6.03587 5.50472 6.5232 5.13607 7.06645 4.88365C7.6097 4.63123 8.19696 4.50056 8.79084 4.49997H15.2075C16.2455 4.48923 17.2518 4.8759 18.0389 5.58792C18.8259 6.29994 19.34 7.28873 19.4853 8.36997C19.7561 10.5301 20.2584 12.6511 20.9825 14.6925C21.2703 15.4978 21.3326 16.373 21.162 17.2145C20.9914 18.0559 20.5951 18.8282 20.02 19.44L17.3036 22.2975C20.3484 27.9305 24.7821 32.5945 30.137 35.7975L32.8533 32.94C33.4349 32.335 34.1691 31.9181 34.969 31.7387C35.7688 31.5592 36.6008 31.6248 37.3664 31.9275C39.3069 32.6892 41.3232 33.2176 43.3767 33.5025C44.4157 33.6567 45.3646 34.2072 46.0429 35.0493C46.7212 35.8915 47.0816 36.9665 47.0556 38.07Z" fill="white"/>
</svg>
