<svg xmlns="http://www.w3.org/2000/svg" width="518" height="506" fill="none" viewBox="0 0 518 506">
  <mask id="a" width="518" height="506" x="0" y="0" maskUnits="userSpaceOnUse" style="mask-type:alpha">
    <path fill="#C4C4C4" fill-rule="evenodd" d="M255.818 1.66c-64.071-3.378-146.479-6.845-181.88 46.638-37.482 56.629 34.723 131.37 20.157 197.69C82.048 300.842-9.427 326.106.795 381.329c9.821 53.055 85.296 60.312 133.873 83.845 39.202 18.991 77.679 36.843 121.15 39.698 46.119 3.028 91.505-3.255 133.294-22.991 49.477-23.367 111.176-46.532 125.619-99.288 14.451-52.786-42.442-96.878-57.511-149.491-15.954-55.702 5.096-122.62-32.947-166.337-40.5-46.542-106.827-61.857-168.455-65.105Z" clip-rule="evenodd"/>
  </mask>
  <g mask="url(#a)">
    <path fill="url(#b)" d="M0 0h591v594H0z" transform="matrix(-1 0 0 1 516.666 -44.407)"/>
  </g>
  <path stroke="url(#c)" stroke-width="10" d="M480.972 369.63c.519 4.339-1.928 9.912-9.442 16.495-7.366 6.455-18.686 13.029-33.354 19.248-29.274 12.41-70.799 22.956-117.599 28.553-46.8 5.597-89.641 5.14-121.015-.018-15.722-2.584-28.273-6.303-36.953-10.839-8.854-4.626-12.547-9.464-13.066-13.803-.518-4.34 1.929-9.912 9.442-16.496 7.367-6.454 18.687-13.028 33.355-19.247 29.273-12.411 70.798-22.957 117.599-28.553 46.8-5.597 89.641-5.141 121.015.017 15.721 2.585 28.272 6.304 36.953 10.84 8.854 4.626 12.546 9.464 13.065 13.803Z" opacity=".4"/>
  <defs>
    <radialGradient id="c" cx="0" cy="0" r="1" gradientTransform="matrix(5.91284 49.4427 -170.67883 20.41144 315.258 389.448)" gradientUnits="userSpaceOnUse">
      <stop stop-color="#3F51E8"/>
      <stop offset=".573" stop-color="#9BA4ED"/>
      <stop offset="1" stop-color="#1F34E7"/>
    </radialGradient>
    <linearGradient id="b" x1="171.5" x2="295" y1="38" y2="452" gradientUnits="userSpaceOnUse">
      <stop stop-color="#9BA4ED" stop-opacity=".61"/>
      <stop offset=".531" stop-color="#343E97" stop-opacity=".343"/>
      <stop offset="1" stop-color="#D3D7F7" stop-opacity=".14"/>
    </linearGradient>
  </defs>
</svg>
