<svg xmlns="http://www.w3.org/2000/svg" width="518" height="506" fill="none" viewBox="0 0 518 506">
  <mask id="a" width="518" height="506" x="0" y="0" maskUnits="userSpaceOnUse" style="mask-type:alpha">
    <path fill="#C4C4C4" fill-rule="evenodd" d="M255.818 1.66c-64.071-3.378-146.479-6.845-181.88 46.638-37.482 56.629 34.723 131.37 20.157 197.69C82.048 300.842-9.427 326.106.795 381.329c9.821 53.055 85.296 60.312 133.873 83.845 39.202 18.991 77.679 36.843 121.15 39.698 46.119 3.028 91.505-3.255 133.294-22.991 49.477-23.367 111.176-46.532 125.619-99.288 14.451-52.786-42.442-96.878-57.511-149.491-15.954-55.702 5.096-122.62-32.947-166.337-40.5-46.542-106.827-61.857-168.455-65.105Z" clip-rule="evenodd"/>
  </mask>
  <g mask="url(#a)">
    <path fill="url(#b)" d="M0 0h591v594H0z" transform="matrix(-1 0 0 1 516.666 -44.407)"/>
  </g>
  <path stroke="url(#c)" stroke-width="10" d="M350.295 419.693c-.757 4.304-4.709 8.932-13.804 13.065-8.917 4.052-21.653 7.076-37.493 8.793-31.61 3.426-74.411 1.528-120.833-6.631-46.422-8.16-87.305-20.971-115.852-34.971-14.305-7.016-25.247-14.202-32.247-21.051-7.14-6.987-9.278-12.685-8.522-16.989.757-4.304 4.71-8.932 13.804-13.065 8.917-4.052 21.653-7.076 37.493-8.793 31.61-3.426 74.411-1.528 120.833 6.631 46.423 8.16 87.305 20.971 115.853 34.971 14.304 7.016 25.246 14.202 32.247 21.051 7.14 6.986 9.278 12.685 8.521 16.989Z" opacity=".4"/>
  <defs>
    <radialGradient id="c" cx="0" cy="0" r="1" gradientTransform="matrix(-8.62028 49.04317 -169.29965 -29.75766 185.92 390.801)" gradientUnits="userSpaceOnUse">
      <stop stop-color="#3F51E8"/>
      <stop offset=".573" stop-color="#9BA4ED"/>
      <stop offset="1" stop-color="#1F34E7"/>
    </radialGradient>
    <linearGradient id="b" x1="171.5" x2="295" y1="38" y2="452" gradientUnits="userSpaceOnUse">
      <stop stop-color="#9BA4ED" stop-opacity=".61"/>
      <stop offset=".531" stop-color="#343E97" stop-opacity=".343"/>
      <stop offset="1" stop-color="#D3D7F7" stop-opacity=".14"/>
    </linearGradient>
  </defs>
</svg>
