<svg width="56" height="56" viewBox="0 0 56 56" fill="none" xmlns="http://www.w3.org/2000/svg">
<path d="M48.125 6.125H7.875C6.90703 6.125 6.125 6.90703 6.125 7.875V48.125C6.125 49.093 6.90703 49.875 7.875 49.875H48.125C49.093 49.875 49.875 49.093 49.875 48.125V7.875C49.875 6.90703 49.093 6.125 48.125 6.125ZM20.125 40.6875C20.125 40.9281 19.9281 41.125 19.6875 41.125H15.3125C15.0719 41.125 14.875 40.9281 14.875 40.6875V15.3125C14.875 15.0719 15.0719 14.875 15.3125 14.875H19.6875C19.9281 14.875 20.125 15.0719 20.125 15.3125V40.6875ZM30.625 25.375C30.625 25.6156 30.4281 25.8125 30.1875 25.8125H25.8125C25.5719 25.8125 25.375 25.6156 25.375 25.375V15.3125C25.375 15.0719 25.5719 14.875 25.8125 14.875H30.1875C30.4281 14.875 30.625 15.0719 30.625 15.3125V25.375ZM41.125 29.3125C41.125 29.5531 40.9281 29.75 40.6875 29.75H36.3125C36.0719 29.75 35.875 29.5531 35.875 29.3125V15.3125C35.875 15.0719 36.0719 14.875 36.3125 14.875H40.6875C40.9281 14.875 41.125 15.0719 41.125 15.3125V29.3125Z" fill="#423F40"/>
</svg>
