<svg width="16" height="16" viewBox="0 0 16 16" fill="none" xmlns="http://www.w3.org/2000/svg">
<g clip-path="url(#clip0_101_188)">
<path d="M3.82965 13.9981H0.927152V4.65237H3.82965V13.9981ZM2.37665 3.37754C1.44865 3.37754 0.695652 2.60864 0.695652 1.68077C0.695652 1.235 0.872757 0.807492 1.18801 0.492286C1.50325 0.177081 1.93082 0 2.37665 0C2.82248 0 3.25005 0.177081 3.5653 0.492286C3.88055 0.807492 4.05765 1.235 4.05765 1.68077C4.05765 2.60864 3.30465 3.37754 2.37665 3.37754ZM14.6927 13.9981H11.7967V9.44871C11.7967 8.36436 11.7747 6.97405 10.2877 6.97405C8.77865 6.97405 8.54715 8.15189 8.54715 9.37072V13.9981H5.64765V4.65237H8.43115V5.92719H8.47165C8.85915 5.19279 9.80565 4.4179 11.2177 4.4179C14.1552 4.4179 14.6952 6.35213 14.6952 8.86429V13.9981H14.6927Z" fill="white"/>
</g>
<defs>
<clipPath id="clip0_101_188">
<rect width="16" height="15.9978" fill="white"/>
</clipPath>
</defs>
</svg>
