<svg width="56" height="56" viewBox="0 0 56 56" fill="none" xmlns="http://www.w3.org/2000/svg">
<path d="M48.9999 28C48.9999 23.2633 47.4366 18.8767 44.3333 14.8867V41.1367C47.4366 37.2633 48.9999 32.8767 48.9999 28ZM41.1366 44.3333H14.8866C16.4733 45.6167 18.5499 46.6667 21.1166 47.6233C23.6599 48.5333 25.9699 49 27.9999 49C30.0533 49 32.3399 48.5333 34.8833 47.6233C37.4499 46.6667 39.5266 45.6167 41.1366 44.3333ZM25.6666 39.6667L16.3333 21V39.6667H25.6666ZM39.6666 21L30.3333 39.6667H39.6666V21ZM27.9999 33.9033L36.7499 16.3333H19.2499L27.9999 33.9033V33.9033ZM41.1366 11.6667C37.2632 8.56334 32.8766 7 27.9999 7C23.1233 7 18.7366 8.56334 14.8866 11.6667H41.1366ZM11.6666 41.1367V14.8867C8.56325 18.8767 6.99992 23.2633 6.99992 28C6.99992 32.8767 8.56325 37.2633 11.6666 41.1367ZM53.6666 28C53.6666 35.07 51.1933 41.1367 46.1533 46.1533C41.1366 51.1933 35.0699 53.6667 27.9999 53.6667C20.9299 53.6667 14.8866 51.1933 9.84658 46.1533C4.80658 41.1367 2.33325 35.07 2.33325 28C2.33325 20.93 4.80658 14.8867 9.84658 9.84667C14.8866 4.80667 20.9299 2.33334 27.9999 2.33334C35.0699 2.33334 41.1366 4.80667 46.1533 9.84667C51.1933 14.8867 53.6666 20.93 53.6666 28Z" fill="#423F40"/>
</svg>
