<svg width="56" height="56" viewBox="0 0 56 56" fill="none" xmlns="http://www.w3.org/2000/svg">
<path d="M16.3334 30.3333H7.00008C5.71675 30.3333 4.66675 29.2833 4.66675 28C4.66675 26.7167 5.71675 25.6667 7.00008 25.6667H16.3334C17.6167 25.6667 18.6667 26.7167 18.6667 28C18.6667 29.2833 17.6167 30.3333 16.3334 30.3333ZM14.0001 18.6667C14.0001 17.3833 12.9501 16.3333 11.6667 16.3333H9.33342C8.05008 16.3333 7.00008 17.3833 7.00008 18.6667C7.00008 19.95 8.05008 21 9.33342 21H11.6667C12.9501 21 14.0001 19.95 14.0001 18.6667ZM51.3334 28C51.3334 34.44 46.1068 39.6667 39.6668 39.6667H9.33342C8.05008 39.6667 7.00008 38.6167 7.00008 37.3333C7.00008 36.05 8.05008 35 9.33342 35H30.3334C29.3534 33.6467 28.5834 32.06 28.2334 30.3333H23.3334C22.0501 30.3333 21.0001 29.2833 21.0001 28C21.0001 26.7167 22.0501 25.6667 23.3334 25.6667H28.2334C28.5834 23.94 29.3534 22.3533 30.3334 21H18.6667C17.3834 21 16.3334 19.95 16.3334 18.6667C16.3334 17.3833 17.3834 16.3333 18.6667 16.3333H39.6668C46.1068 16.3333 51.3334 21.56 51.3334 28Z" fill="#423F40"/>
</svg>
