<svg width="40" height="40" viewBox="0 0 40 40" fill="none" xmlns="http://www.w3.org/2000/svg">
<path d="M36.6667 28.2V33.2C36.6686 33.6641 36.5735 34.1236 36.3875 34.5489C36.2016 34.9742 35.9288 35.3559 35.5868 35.6697C35.2448 35.9835 34.841 36.2224 34.4012 36.3711C33.9615 36.5198 33.4956 36.5751 33.0333 36.5333C27.9047 35.976 22.9783 34.2235 18.65 31.4166C14.623 28.8577 11.2089 25.4436 8.65 21.4166C5.8333 17.0686 4.0804 12.1183 3.53333 6.96662C3.49168 6.50574 3.54646 6.04123 3.69417 5.60267C3.84188 5.16411 4.07928 4.76111 4.39128 4.41933C4.70327 4.07755 5.08301 3.80447 5.50632 3.61749C5.92963 3.43052 6.38723 3.33373 6.85 3.33329H11.85C12.6588 3.32533 13.443 3.61176 14.0563 4.13918C14.6696 4.6666 15.0701 5.39904 15.1833 6.19996C15.3944 7.80007 15.7857 9.37117 16.35 10.8833C16.5742 11.4798 16.6228 12.1281 16.4898 12.7514C16.3569 13.3747 16.0481 13.9468 15.6 14.4L13.4833 16.5166C15.8559 20.6892 19.3108 24.144 23.4833 26.5166L25.6 24.4C26.0531 23.9519 26.6253 23.643 27.2485 23.5101C27.8718 23.3772 28.5201 23.4257 29.1167 23.65C30.6288 24.2142 32.1999 24.6056 33.8 24.8166C34.6096 24.9308 35.349 25.3386 35.8776 25.9625C36.4061 26.5863 36.6869 27.3826 36.6667 28.2Z" fill="#8773EE"/>
</svg>
