<svg width="16" height="16" viewBox="0 0 16 16" fill="none" xmlns="http://www.w3.org/2000/svg">
<path d="M14.5 3.97291C14.0219 4.17913 13.5016 4.32755 12.9656 4.38535C13.522 4.05483 13.9387 3.53265 14.1375 2.9168C13.6154 3.22737 13.0434 3.44514 12.4469 3.56046C12.1976 3.29398 11.896 3.08168 11.5611 2.93681C11.2261 2.79194 10.8649 2.71758 10.5 2.71839C9.02344 2.71839 7.83594 3.9151 7.83594 5.38365C7.83594 5.58988 7.86094 5.7961 7.90156 5.99451C5.69063 5.8789 3.71875 4.82279 2.40782 3.20582C2.16895 3.61376 2.04378 4.07825 2.04532 4.55095C2.04532 5.47583 2.51563 6.29134 3.23282 6.77097C2.81017 6.75432 2.39742 6.63817 2.02813 6.43195V6.46476C2.02813 7.75989 2.94376 8.83319 4.16407 9.08003C3.93494 9.13954 3.69923 9.16998 3.4625 9.17064C3.28907 9.17064 3.125 9.15346 2.95938 9.13002C3.29688 10.1861 4.27969 10.9532 5.45 10.9782C4.53438 11.6953 3.3875 12.1171 2.14219 12.1171C1.91876 12.1171 1.71251 12.1093 1.49844 12.0843C2.67969 12.842 4.08125 13.2795 5.59063 13.2795C10.4906 13.2795 13.1719 9.22063 13.1719 5.69767C13.1719 5.58206 13.1719 5.46646 13.1641 5.35085C13.6828 4.97121 14.1375 4.50096 14.5 3.97291Z" fill="white"/>
</svg>
