<svg xmlns="http://www.w3.org/2000/svg" width="372" height="469" fill="none" viewBox="0 0 372 469">
  <g filter="url(#a)">
    <circle cx="224.63" cy="412.226" r="24.774" fill="url(#b)" shape-rendering="crispEdges"/>
  </g>
  <g filter="url(#c)">
    <circle cx="300.182" cy="333.156" r="18.328" fill="url(#d)" shape-rendering="crispEdges"/>
  </g>
  <circle cx="186" cy="186" r="186" fill="url(#e)" fill-opacity=".6"/>
  <g filter="url(#f)">
    <ellipse cx="224.259" cy="227.724" fill="url(#g)" fill-opacity=".5" rx="111.442" ry="69.815" shape-rendering="crispEdges"/>
    <path stroke="url(#h)" stroke-opacity=".6" stroke-width=".941" d="M335.231 227.724c0 19.059-12.332 36.384-32.42 48.968-20.081 12.581-47.852 20.377-78.552 20.377-30.699 0-58.47-7.796-78.551-20.377-20.088-12.584-32.42-29.909-32.42-48.968 0-19.058 12.332-36.384 32.42-48.968 20.081-12.58 47.852-20.376 78.551-20.376 30.7 0 58.471 7.796 78.552 20.376 20.088 12.584 32.42 29.91 32.42 48.968Z" shape-rendering="crispEdges"/>
  </g>
  <circle cx="224.258" cy="162.625" r="141.382" fill="url(#i)"/>
  <ellipse cx="224.257" cy="186" fill="url(#j)" fill-opacity=".5" rx="138.225" ry="80.864"/>
  <path stroke="url(#k)" stroke-opacity=".6" stroke-width=".941" d="M362.011 186c0 22.094-15.311 42.183-40.252 56.774-24.93 14.584-59.401 23.62-97.502 23.62-38.101 0-72.572-9.036-97.502-23.62-24.941-14.591-40.252-34.68-40.252-56.774s15.311-42.182 40.252-56.773c24.93-14.584 59.401-23.62 97.502-23.62 38.101 0 72.572 9.036 97.502 23.62 24.941 14.591 40.252 34.679 40.252 56.773Z"/>
  <circle cx="224.257" cy="162.624" r="104.724" fill="url(#l)"/>
  <circle cx="224.257" cy="162.624" r="104.724" fill="url(#m)"/>
  <g filter="url(#n)">
    <ellipse cx="224.258" cy="135.797" fill="url(#o)" fill-opacity=".5" rx="136.819" ry="78.994" shape-rendering="crispEdges"/>
    <path stroke="url(#p)" stroke-opacity=".6" stroke-width=".941" d="M360.606 135.797c0 21.574-15.15 41.195-39.838 55.449-24.676 14.247-58.796 23.074-96.51 23.074-37.714 0-71.834-8.827-96.51-23.074-24.688-14.254-39.838-33.875-39.838-55.449 0-21.575 15.15-41.196 39.838-55.45 24.676-14.247 58.796-23.074 96.51-23.074 37.714 0 71.834 8.827 96.51 23.074 24.688 14.254 39.838 33.875 39.838 55.45Z" shape-rendering="crispEdges"/>
  </g>
  <g filter="url(#q)">
    <ellipse cx="224.257" cy="95.006" fill="url(#r)" fill-opacity=".5" rx="106.167" ry="68.624" shape-rendering="crispEdges"/>
    <path stroke="url(#s)" stroke-opacity=".6" stroke-width=".941" d="M329.954 95.006c0 18.736-11.75 35.763-30.881 48.129-19.125 12.362-45.576 20.024-74.816 20.024-29.24 0-55.69-7.662-74.816-20.024-19.131-12.366-30.881-29.393-30.881-48.13 0-18.736 11.75-35.763 30.881-48.128 19.126-12.363 45.576-20.025 74.816-20.025 29.24 0 55.691 7.662 74.816 20.024 19.131 12.366 30.881 29.393 30.881 48.13Z" shape-rendering="crispEdges"/>
  </g>
  <ellipse cx="224.259" cy="71.17" fill="url(#t)" fill-opacity=".5" rx="66.081" ry="44.789"/>
  <path stroke="url(#u)" stroke-opacity=".6" stroke-width=".941" d="M289.87 71.17c0 12.166-7.275 23.234-19.148 31.281-11.871 8.046-28.296 13.037-46.463 13.037-18.166 0-34.591-4.991-46.462-13.037-11.873-8.047-19.148-19.115-19.148-31.28 0-12.166 7.275-23.234 19.148-31.281 11.871-8.046 28.296-13.038 46.462-13.038 18.167 0 34.592 4.992 46.463 13.038 11.873 8.047 19.148 19.115 19.148 31.28Z"/>
  <ellipse cx="224.258" cy="55.881" fill="url(#v)" fill-opacity=".5" rx="38.258" ry="26.324"/>
  <path stroke="url(#w)" stroke-opacity=".6" stroke-width=".941" d="M262.045 55.88c0 7.07-4.164 13.522-11.002 18.227-6.835 4.703-16.304 7.627-26.785 7.627-10.482 0-19.95-2.924-26.786-7.627-6.837-4.705-11.001-11.157-11.001-18.226 0-7.07 4.164-13.522 11.001-18.226 6.836-4.703 16.304-7.628 26.786-7.628 10.481 0 19.95 2.925 26.785 7.628 6.838 4.704 11.002 11.156 11.002 18.226Z"/>
  <circle cx="224.258" cy="162.624" r="141.382" fill="url(#x)" fill-opacity=".3"/>
  <defs>
    <linearGradient id="b" x1="224.63" x2="224.63" y1="376.68" y2="463.569" gradientUnits="userSpaceOnUse">
      <stop stop-color="#fff"/>
      <stop offset=".224" stop-color="#6BE4FF"/>
      <stop offset=".623" stop-color="#371B73" stop-opacity=".6"/>
      <stop offset="1" stop-color="#0A1153" stop-opacity=".4"/>
    </linearGradient>
    <linearGradient id="d" x1="300.182" x2="300.182" y1="306.859" y2="371.14" gradientUnits="userSpaceOnUse">
      <stop stop-color="#fff"/>
      <stop offset=".224" stop-color="#6BE4FF"/>
      <stop offset=".623" stop-color="#371B73" stop-opacity=".6"/>
      <stop offset="1" stop-color="#0A1153" stop-opacity=".4"/>
    </linearGradient>
    <linearGradient id="g" x1="224.259" x2="224.259" y1="157.909" y2="297.54" gradientUnits="userSpaceOnUse">
      <stop stop-color="#13154D"/>
      <stop offset="1" stop-color="#8E92EE" stop-opacity="0"/>
    </linearGradient>
    <linearGradient id="h" x1="279.608" x2="285.916" y1="236.526" y2="306.959" gradientUnits="userSpaceOnUse">
      <stop stop-color="#fff" stop-opacity="0"/>
      <stop offset="1" stop-color="#fff"/>
    </linearGradient>
    <linearGradient id="j" x1="97.313" x2="359.299" y1="203.186" y2="173.616" gradientUnits="userSpaceOnUse">
      <stop stop-color="#fff"/>
      <stop offset="1" stop-color="#12178E" stop-opacity=".4"/>
    </linearGradient>
    <linearGradient id="k" x1="246.204" x2="204.382" y1="301.135" y2="201.358" gradientUnits="userSpaceOnUse">
      <stop offset=".001" stop-color="#fff"/>
      <stop offset="1" stop-color="#fff" stop-opacity="0"/>
    </linearGradient>
    <linearGradient id="o" x1="90.386" x2="361.076" y1="130.352" y2="138.762" gradientUnits="userSpaceOnUse">
      <stop stop-color="#fff"/>
      <stop offset="1" stop-color="#5653FF" stop-opacity=".2"/>
    </linearGradient>
    <linearGradient id="p" x1="206.241" x2="197.735" y1="270.564" y2="141.709" gradientUnits="userSpaceOnUse">
      <stop stop-color="#fff"/>
      <stop offset="1" stop-color="#fff" stop-opacity="0"/>
    </linearGradient>
    <linearGradient id="r" x1="224.257" x2="224.257" y1="26.382" y2="163.629" gradientUnits="userSpaceOnUse">
      <stop stop-color="#13154D" stop-opacity=".5"/>
      <stop offset="1" stop-color="#8E92EE" stop-opacity="0"/>
    </linearGradient>
    <linearGradient id="s" x1="242.813" x2="256.895" y1="193.426" y2="41.66" gradientUnits="userSpaceOnUse">
      <stop stop-color="#fff"/>
      <stop offset="1" stop-color="#fff" stop-opacity="0"/>
    </linearGradient>
    <linearGradient id="t" x1="224.259" x2="224.259" y1="26.382" y2="115.959" gradientUnits="userSpaceOnUse">
      <stop stop-color="#13154D"/>
      <stop offset="1" stop-color="#8E92EE" stop-opacity="0"/>
    </linearGradient>
    <linearGradient id="u" x1="250.699" x2="224.259" y1="181.863" y2="26.382" gradientUnits="userSpaceOnUse">
      <stop stop-color="#fff"/>
      <stop offset="1" stop-color="#fff" stop-opacity="0"/>
    </linearGradient>
    <linearGradient id="v" x1="224.258" x2="224.258" y1="29.557" y2="82.204" gradientUnits="userSpaceOnUse">
      <stop stop-color="#13154D"/>
      <stop offset="1" stop-color="#8E92EE" stop-opacity="0"/>
    </linearGradient>
    <linearGradient id="w" x1="244.916" x2="224.258" y1="137.711" y2="29.557" gradientUnits="userSpaceOnUse">
      <stop stop-color="#fff"/>
      <stop offset="1" stop-color="#fff" stop-opacity="0"/>
    </linearGradient>
    <radialGradient id="e" cx="0" cy="0" r="1" gradientTransform="rotate(90 0 186) scale(186)" gradientUnits="userSpaceOnUse">
      <stop stop-color="#FF65C1"/>
      <stop offset="1" stop-color="#FF65C1" stop-opacity="0"/>
    </radialGradient>
    <radialGradient id="i" cx="0" cy="0" r="1" gradientTransform="rotate(-19.664 659.014 -132.079) scale(300.275)" gradientUnits="userSpaceOnUse">
      <stop offset=".249" stop-color="#fff"/>
      <stop offset=".483" stop-color="#FF8FED" stop-opacity=".5"/>
      <stop offset=".627" stop-color="#220C7A" stop-opacity=".5"/>
    </radialGradient>
    <radialGradient id="l" cx="0" cy="0" r="1" gradientTransform="rotate(-14.849 900.525 -448.628) scale(207.504)" gradientUnits="userSpaceOnUse">
      <stop offset=".239" stop-color="#fff"/>
      <stop offset=".41" stop-color="#FFCEF1"/>
      <stop offset=".675" stop-color="#B6B9FF"/>
      <stop offset=".861" stop-color="#FFA8E7"/>
      <stop offset="1" stop-color="#fff"/>
    </radialGradient>
    <radialGradient id="m" cx="0" cy="0" r="1" gradientTransform="rotate(-121.724 229.627 31.624) scale(119.316)" gradientUnits="userSpaceOnUse">
      <stop stop-color="#3F52FF"/>
      <stop offset="1" stop-color="#3F52FF" stop-opacity="0"/>
    </radialGradient>
    <radialGradient id="x" cx="0" cy="0" r="1" gradientTransform="rotate(-19.664 659.01 -132.08) scale(300.275)" gradientUnits="userSpaceOnUse">
      <stop offset=".249" stop-color="#fff"/>
      <stop offset=".483" stop-color="#FF8FED" stop-opacity=".5"/>
      <stop offset=".627" stop-color="#220C7A" stop-opacity="0"/>
    </radialGradient>
    <filter id="a" width="115.431" height="115.43" x="166.915" y="352.628" color-interpolation-filters="sRGB" filterUnits="userSpaceOnUse">
      <feFlood flood-opacity="0" result="BackgroundImageFix"/>
      <feColorMatrix in="SourceAlpha" result="hardAlpha" values="0 0 0 0 0 0 0 0 0 0 0 0 0 0 0 0 0 0 127 0"/>
      <feOffset dy="-1.882"/>
      <feGaussianBlur stdDeviation="16.471"/>
      <feComposite in2="hardAlpha" operator="out"/>
      <feColorMatrix values="0 0 0 0 0.371081 0 0 0 0 0.235903 0 0 0 0 0.658333 0 0 0 1 0"/>
      <feBlend in2="BackgroundImageFix" result="effect1_dropShadow_96_2237"/>
      <feColorMatrix in="SourceAlpha" result="hardAlpha" values="0 0 0 0 0 0 0 0 0 0 0 0 0 0 0 0 0 0 127 0"/>
      <feOffset dy="-1.882"/>
      <feGaussianBlur stdDeviation="9.412"/>
      <feComposite in2="hardAlpha" operator="out"/>
      <feColorMatrix values="0 0 0 0 0.48825 0 0 0 0 0.372778 0 0 0 0 0.733333 0 0 0 1 0"/>
      <feBlend in2="effect1_dropShadow_96_2237" result="effect2_dropShadow_96_2237"/>
      <feBlend in="SourceGraphic" in2="effect2_dropShadow_96_2237" result="shape"/>
    </filter>
    <filter id="c" width="102.538" height="102.538" x="248.912" y="280.004" color-interpolation-filters="sRGB" filterUnits="userSpaceOnUse">
      <feFlood flood-opacity="0" result="BackgroundImageFix"/>
      <feColorMatrix in="SourceAlpha" result="hardAlpha" values="0 0 0 0 0 0 0 0 0 0 0 0 0 0 0 0 0 0 127 0"/>
      <feOffset dy="-1.882"/>
      <feGaussianBlur stdDeviation="16.471"/>
      <feComposite in2="hardAlpha" operator="out"/>
      <feColorMatrix values="0 0 0 0 0.371081 0 0 0 0 0.235903 0 0 0 0 0.658333 0 0 0 1 0"/>
      <feBlend in2="BackgroundImageFix" result="effect1_dropShadow_96_2237"/>
      <feColorMatrix in="SourceAlpha" result="hardAlpha" values="0 0 0 0 0 0 0 0 0 0 0 0 0 0 0 0 0 0 127 0"/>
      <feOffset dy="-1.882"/>
      <feGaussianBlur stdDeviation="9.412"/>
      <feComposite in2="hardAlpha" operator="out"/>
      <feColorMatrix values="0 0 0 0 0.48825 0 0 0 0 0.372778 0 0 0 0 0.733333 0 0 0 1 0"/>
      <feBlend in2="effect1_dropShadow_96_2237" result="effect2_dropShadow_96_2237"/>
      <feBlend in="SourceGraphic" in2="effect2_dropShadow_96_2237" result="shape"/>
    </filter>
    <filter id="f" width="241.708" height="158.454" x="103.406" y="149.438" color-interpolation-filters="sRGB" filterUnits="userSpaceOnUse">
      <feFlood flood-opacity="0" result="BackgroundImageFix"/>
      <feColorMatrix in="SourceAlpha" result="hardAlpha" values="0 0 0 0 0 0 0 0 0 0 0 0 0 0 0 0 0 0 127 0"/>
      <feOffset dy=".941"/>
      <feGaussianBlur stdDeviation="4.706"/>
      <feComposite in2="hardAlpha" operator="out"/>
      <feColorMatrix values="0 0 0 0 0.440043 0 0 0 0 0.20092 0 0 0 0 0.679167 0 0 0 0.3 0"/>
      <feBlend in2="BackgroundImageFix" result="effect1_dropShadow_96_2237"/>
      <feBlend in="SourceGraphic" in2="effect1_dropShadow_96_2237" result="shape"/>
    </filter>
    <filter id="n" width="283.049" height="167.4" x="82.734" y="53.038" color-interpolation-filters="sRGB" filterUnits="userSpaceOnUse">
      <feFlood flood-opacity="0" result="BackgroundImageFix"/>
      <feColorMatrix in="SourceAlpha" result="hardAlpha" values="0 0 0 0 0 0 0 0 0 0 0 0 0 0 0 0 0 0 127 0"/>
      <feOffset dy=".941"/>
      <feGaussianBlur stdDeviation="2.353"/>
      <feComposite in2="hardAlpha" operator="out"/>
      <feColorMatrix values="0 0 0 0 0.369333 0 0 0 0 0.0916667 0 0 0 0 0.5 0 0 0 0.15 0"/>
      <feBlend in2="BackgroundImageFix" result="effect1_dropShadow_96_2237"/>
      <feBlend in="SourceGraphic" in2="effect1_dropShadow_96_2237" result="shape"/>
    </filter>
    <filter id="q" width="226.452" height="151.365" x="111.972" y="20.264" color-interpolation-filters="sRGB" filterUnits="userSpaceOnUse">
      <feFlood flood-opacity="0" result="BackgroundImageFix"/>
      <feColorMatrix in="SourceAlpha" result="hardAlpha" values="0 0 0 0 0 0 0 0 0 0 0 0 0 0 0 0 0 0 127 0"/>
      <feOffset dx=".941" dy=".941"/>
      <feGaussianBlur stdDeviation="3.529"/>
      <feComposite in2="hardAlpha" operator="out"/>
      <feColorMatrix values="0 0 0 0 0.440043 0 0 0 0 0.20092 0 0 0 0 0.679167 0 0 0 0.2 0"/>
      <feBlend in2="BackgroundImageFix" result="effect1_dropShadow_96_2237"/>
      <feBlend in="SourceGraphic" in2="effect1_dropShadow_96_2237" result="shape"/>
    </filter>
  </defs>
</svg>
