<svg xmlns="http://www.w3.org/2000/svg" width="1203" height="1203" fill="none" viewBox="0 0 1203 1203">
  <g filter="url(#a)">
    <circle cx="601.5" cy="601.5" r="429.5" fill="url(#b)" fill-opacity=".6"/>
  </g>
  <path stroke="url(#c)" stroke-linecap="round" stroke-width="1.709" d="M521.07 513.16C312.617 537.539 158 627.015 158 733.665c0 125.405 213.781 227.066 477.493 227.066 263.711 0 477.497-101.661 477.497-227.066 0-110.101-164.79-201.899-383.476-222.665" style="mix-blend-mode:overlay"/>
  <path stroke="url(#d)" stroke-linecap="round" stroke-width="1.709" d="M521.07 514.76C312.617 539.138 158 628.615 158 735.264c0 125.405 213.781 227.066 477.493 227.066 263.711 0 477.497-101.661 477.497-227.066 0-110.1-164.79-201.898-383.476-222.665" style="mix-blend-mode:overlay"/>
  <path stroke="url(#e)" stroke-linecap="round" stroke-width="1.709" d="M745.746 518.28c210.557 23.666 367.244 113.623 367.244 220.983 0 125.405-213.786 227.065-477.497 227.065C371.781 966.328 158 864.668 158 739.263c0-104.894 149.568-193.176 352.818-219.248" style="mix-blend-mode:overlay"/>
  <path stroke="url(#f)" stroke-linecap="round" stroke-width="1.709" d="M494.587 528.643C299.655 557.231 158 643.579 158 745.66c0 125.405 213.781 227.066 477.493 227.066 263.711 0 477.497-101.661 477.497-227.066 0-105.39-150.991-194.01-355.711-219.614" style="mix-blend-mode:overlay"/>
  <path stroke="url(#g)" stroke-linecap="round" stroke-width="1.709" d="M774.791 537.204c195.761 28.349 338.199 114.89 338.199 217.252 0 125.405-213.786 227.066-477.497 227.066C371.781 981.522 158 879.861 158 754.456c0-98.998 133.228-183.199 319.074-214.27" style="mix-blend-mode:overlay"/>
  <rect width="630" height="630" x="276" y="214" fill="url(#h)" rx="315"/>
  <g clip-path="url(#i)">
    <path fill="#000" d="M361.5 305.306c4.056 2.183 4.5 1.194 9.5 13.194l58.066-13.194c6.153.548 11.606-2.072 14.968-5.347 5.488-5.347 3.825-13.711 1.996-18.098 3.825-3.976 5.388-9.625 2.993-13.573-2.993-4.936-2.993-5.347-2.993-5.347s11.475-2.879 13.97-7.404c-2.661-.274-17.563-6.005-17.962-10.283-.499-5.347-15.966-21.799-25.945-23.856-7.983-1.645-18.959 2.194-23.949 4.525-3.991-.823-12.772-4.607-21.953-.001-9.18 4.607-14.303 10.42-10.478 15.63-1.33-1.096-16.963 1.646-19.458 11.928-2.866 11.816-.665 20.566 4.989 23.857-2.827.959-4.608 6.54-.744 13.163 3.5 6 9.844 4.911 15 4.5-1.164.686-6 6 2 10.306Z"/>
    <path fill="#002AB2" d="m335.5 650 18-88c5 3.167 21.1 5.8 37.5 7 16.4 1.2 44.667-.5 57.5-2.5L459 564c.8 2.8 4 18.5 10 35.5 7.059 20 11 40.5 14 58 1.291 7.532 10 53.167 13 76l13.5 81.5 2.5 28-72.5-28-7-27-16-130.5c-3-36.5-10 4-10 4s-12.5 79.5-18 105l-7 11-55-70.5 9-57Z"/>
    <path stroke="#253368" stroke-linecap="round" stroke-width="1.5" d="M418.5 576.5v40c0 4.833-.6 15.3-3 18.5-2.4 3.2-4 3.333-4.5 3l1.5-67m-41-4-3 15c-.5 2.667-2.5 8.5-6.5 10.5s-12 .833-15.5 0m106-25.5 1 13c.833 3.5 3.2 10.7 6 11.5 2.8.8 5.167.333 6 0"/>
    <path fill="#597EF7" fill-rule="evenodd" d="M520.803 1206.41c.325 1.44 5.214-49.94 4.978-65.09-20.292 2.68-39.054.77-39.054.77s2.679 58.57 1.915 64.32c14.547 8.8 32.161 0 32.161 0Z" clip-rule="evenodd"/>
    <path fill="#4E5C93" fill-rule="evenodd" d="M516.635 1275.92c-2.52 20.31-13.445 31.06-24.716 32.24-13.956 1.48-29.154-2.46-31.609-14.97-2.803-14.28 4.545-21.58 12.758-42 8.211-20.43 12.13-37.89 15.191-52.44 0 0 10.467-6.12 7.659 11.49-2.275 14.26-7.789 54.37-17.487 57.17 9.446-.76 28.845 6.64 28.845 6.64s-6.893-10.72-6.382-14.3c.511-3.57 6.215-40.18 6.508-51.04.291-10.75 9.612-9.45 14.104-8.19a2.934 2.934 0 0 1 2.119 3.18c-.428 3.58-5.796 62.61-6.99 72.22Z" clip-rule="evenodd"/>
    <path fill="#4E5C93" fill-rule="evenodd" d="M511.616 1222.11s11.643-24.38 0-26.8c-9.19-1.92-17.995-2.3-19.144 0-.427.85-.384 8.8-3.445 25.27-3.577 19.21-12.718 41.76-16.083 46.32-5.36 7.28.385 7.66 13.402 11.11 13.017 3.44 17.61 3.44 21.058-3.45 3.445-6.89 3.445-37.52 4.212-52.45Z" clip-rule="evenodd"/>
    <path fill="#CCD7EE" d="M487.376 1228.89c.272-.7 1.06-1.05 1.76-.78 1.725.68 3.599 1.59 5.602 2.72 1.897 1.07 3.884 2.32 5.93 3.71 2.442 1.66 4.845 3.44 7.107 5.21l.914.73c.292.23.572.45.838.67l1.182.98c1.034.88.281 2.56-1.064 2.38-2.58-.35-5.686-.18-9.199.46-3.199.57-6.621 1.51-10.129 2.7-1.297.45-2.558.91-3.768 1.38l-.833.32.518.17c3.946 1.28 7.956 3.53 11.95 6.5l.705.53a70.586 70.586 0 0 1 6.432 5.59l.78.78c.124.13.245.25.362.37l.667.7c.318.34.539.59.658.72a1.359 1.359 0 1 1-2.046 1.79l-.43-.47-.166-.18a59.942 59.942 0 0 0-1.73-1.77 67.749 67.749 0 0 0-6.18-5.37c-5.516-4.22-11.025-6.97-16.155-7.58-1.358-.16-1.658-2-.421-2.58l.67-.3 1.328-.58a102.876 102.876 0 0 1 6.783-2.59c3.627-1.23 7.176-2.2 10.522-2.81 1.692-.3 3.305-.51 4.832-.61l.968-.05-1.013-.78c-1.36-1.04-2.762-2.08-4.183-3.08l-1.427-.98c-1.988-1.35-3.912-2.56-5.738-3.59-1.898-1.07-3.658-1.93-5.252-2.55a1.36 1.36 0 0 1-.774-1.76Z"/>
    <path fill="#CCD7EE" d="M500.677 1231.45c3.63-.43 6.813-.41 9.444.18.733.16 1.195.88 1.032 1.62a1.363 1.363 0 0 1-1.622 1.03c-2.285-.51-5.179-.53-8.529-.13-2.768.34-5.735.95-8.767 1.75-1.01.27-1.988.55-2.924.83l-.261.08.43.2c3.144 1.53 6.202 3.46 9.156 5.71l.883.69c2.8 2.21 5.335 4.58 7.563 6.95.625.67 1.19 1.3 1.693 1.88l.686.81c.189.23.328.4.416.51.664.86.111 2.08-.917 2.19h-.518c-1.684-.02-3.906.01-6.468.12-3.826.16-7.6.48-11.12 1-6.18.9-11.025 2.31-13.965 4.27a1.359 1.359 0 1 1-1.508-2.26c3.355-2.24 8.533-3.75 15.081-4.7 3.621-.53 7.484-.86 11.396-1.03l1.526-.06c.493-.01.972-.03 1.433-.04l1.03-.01-.308-.34-.438-.47a67.812 67.812 0 0 0-7.269-6.69c-4.19-3.31-8.588-5.93-13.108-7.61-1.183-.44-1.184-2.11-.002-2.55l1.181-.41c.236-.08.486-.17.749-.25 1.504-.5 3.15-.99 4.886-1.45 3.145-.83 6.233-1.47 9.139-1.82Z"/>
    <path fill="#CCD7EE" fill-rule="evenodd" d="M515.442 1279.92s-27.567-22.97-52.837-6.13c-6.318 14.09-2.663 22.46.384 26.81 1.262 1.79 3.65 4.3 5.716 5.05 6.153 2.22 22.287 6.68 33.72-.84 14.547-9.58 13.017-24.89 13.017-24.89Z" clip-rule="evenodd"/>
    <path fill="#A3B5D6" d="M463.755 1273.97a.714.714 0 0 1 .977-.3c.351.19.485.62.297.98-3.161 5.92.258 13.85 4.87 16.92 3.372 2.25 16.078 4.42 26.112 3.97 4.566-.21 8.313-3.1 11.296-7.83a32.94 32.94 0 0 0 2.754-5.5c.258-.65.475-1.26.653-1.81l.206-.67a.718.718 0 0 1 .887-.5c.385.1.611.5.505.88l-.162.54-.063.2c-.186.57-.413 1.21-.682 1.89a34.214 34.214 0 0 1-2.876 5.74c-3.211 5.09-7.33 8.27-12.452 8.5-10.313.47-23.298-1.75-26.978-4.21-5.167-3.44-8.91-12.12-5.344-18.8Z"/>
    <path fill="#CCD7EE" d="M524.348 1149.18c.734-.16 1.457.31 1.614 1.04.157.74-.311 1.46-1.045 1.62l-.479.09c-.382.08-.828.16-1.333.25l-1.502.26c-1.043.17-2.168.33-3.364.49-9.02 1.2-18.394 1.52-27.182.44-.889-.11-1.765-.23-2.63-.37a1.363 1.363 0 0 1-1.127-1.56c.118-.74.815-1.24 1.557-1.13.832.14 1.676.26 2.532.36 8.527 1.05 17.683.74 26.492-.43 1.462-.2 2.812-.4 4.032-.61l.716-.12c.836-.15 1.42-.27 1.719-.33Zm-23.249 67.1c.625-.02 1.167.38 1.347.95l.023.11.12.03.172.07.962.47 1.2.61c.42.21.858.44 1.313.68a130.88 130.88 0 0 1 7.628 4.33c2.371 1.46 4.456 2.88 6.182 4.23 2.276 1.79 3.885 3.43 4.738 4.96 1.143 2.04.934 4.02-.854 5.39-2.953 2.28-6.873.66-11.536-3.59-1.729-1.57-3.541-3.49-5.405-5.69-1.842-2.17-3.637-4.5-5.315-6.82l-.43-.6-.863-1.23-1.095.93a97.056 97.056 0 0 1-5.485 4.25 64.341 64.341 0 0 1-4.649 3.08l-.865.5c-6.551 3.7-11.332 4.14-12.931-.66-1.808-5.42 3.59-8.64 13.16-10.53 2.758-.54 5.702-.93 8.645-1.2l1.486-.12 1.358-.09c.518-.03.891-.05 1.094-.06Zm3.513 5.14.263.36a105.21 105.21 0 0 0 4.188 5.29c1.794 2.12 3.528 3.96 5.161 5.44 3.758 3.42 6.572 4.58 8.048 3.45.62-.48.671-.96.138-1.92-.638-1.14-2.027-2.56-4.044-4.14-1.635-1.28-3.638-2.65-5.927-4.06a122.887 122.887 0 0 0-5.942-3.42l-1.528-.81-.357-.19Zm-7.387-2.14-1.246.12c-2.375.25-4.726.59-6.938 1.02l-1.115.23c-7.258 1.58-10.936 3.93-9.991 6.77.826 2.48 4.2 2.02 9.828-1.32a61.236 61.236 0 0 0 4.45-2.94 97.474 97.474 0 0 0 4.303-3.3l.709-.58Zm15.278-15.25c.686.07 1.206.63 1.235 1.3l-.004.18-1.022 11.23c-.068.75-.729 1.3-1.477 1.23a1.355 1.355 0 0 1-1.235-1.29l.004-.18 1.022-11.24a1.36 1.36 0 0 1 1.292-1.23h.185Zm-17.868-3.57c.686.06 1.206.62 1.236 1.29l-.005.19-1.022 11.23c-.068.75-.729 1.3-1.477 1.23a1.356 1.356 0 0 1-1.235-1.29l.004-.19 1.022-11.23c.063-.68.624-1.2 1.293-1.23h.184Z"/>
    <path fill="#002AB2" fill-rule="evenodd" d="m353.313 562.699 1.732-10.502s46.783.04 102.608.384c.382 5.358 1.915 11.869 1.915 11.869s-40.336 13.528-106.255-1.751Z" clip-rule="evenodd"/>
    <path fill="#fff" fill-rule="evenodd" d="m466.746 487.609-3.929 10.04s-1.078 49.599-1.078 53.528c-53.604 8.677-107.885-.68-107.885-.68l.264-18.358-4.365-56.315 116.993 11.785Z" clip-rule="evenodd"/>
    <path fill="#000" d="M465.933 486.856a.874.874 0 0 1 1.67.485l-.044.151-3.875 9.897-1.563 52.872a82.184 82.184 0 0 0-.021 1.425c0 .42-.3.781-.714.858-30.92 5.737-62.561 5.42-91.667 1.439a258.455 258.455 0 0 1-11.259-1.78l-1.098-.203a160.746 160.746 0 0 1-2.828-.554l-1.64-.351a.873.873 0 0 1-.67-.742l-.006-.157 1.028-18.544a.872.872 0 0 1 1.737-.061l.005.158-.987 17.801.407.087c.62.13 1.313.271 2.077.419l1.199.229a253.23 253.23 0 0 0 12.272 1.969c28.306 3.871 59.031 4.258 89.108-1.063l1.297-.237.142-5.832.717-24.485.724-23.451.06-.29 3.929-10.04Z"/>
    <path fill="#FFC999" fill-rule="evenodd" d="M436.211 276.638c-21.201 3.72-27.642-12.32-27.642-12.32s-8.746-22.591-10.987-8.722c-1.191 7.372-12.586-2.41-17.825 5.449-3.526 5.287 5.29 12.103-6.167 26.201-6.638 8.167-2.09 21.754-3.09 32.254 0 0 0 8-1.762 21.86l-4.362 21.397 45.462-.07-1.463-24.64c30.63 0 32.126-42.101 27.836-61.409Z" clip-rule="evenodd"/>
    <path fill="#DD936F" d="M397.13 299.048a1.36 1.36 0 0 1 1.923 0l.278.255c.127.11.288.244.482.398a17.416 17.416 0 0 0 2.333 1.546c3.008 1.673 6.441 2.539 10.219 2.173a1.358 1.358 0 1 1 .263 2.706c-4.372.424-8.343-.577-11.804-2.503-1.756-.976-3.004-1.962-3.694-2.652a1.36 1.36 0 0 1 0-1.923Zm16.726-21.252c.537.039.955.462 1.002.982l.002.189c-.026.718.116 1.923.589 3.561.763 2.638 2.188 5.6 4.444 8.832a1.084 1.084 0 0 1-.313 1.539l-1.407.874a127.353 127.353 0 0 1-4.825 2.836l-.513.284c-.391.213-.746.403-1.068.572l-1.099.555a3 3 0 0 1-.071.033 1.083 1.083 0 1 1-.909-1.968l.504-.247.893-.464c.221-.118.458-.246.709-.383a116.117 116.117 0 0 0 4.503-2.612l1.177-.724-.269-.411c-1.731-2.686-2.924-5.209-3.663-7.536l-.175-.578c-.49-1.693-.674-3.033-.678-3.972l.009-.358a1.084 1.084 0 0 1 1.158-1.004Z"/>
    <path fill="#fff" fill-rule="evenodd" d="M418.217 532.288s58.109 15.41 84.616-3.064c28.812-20.079-6.471-96.487-15.698-116.394-7.921-17.094-25.19-28.169-40.907-30.789-15.464-2.576-27.282-3.493-27.282-3.493l-3.397-13.238a4.36 4.36 0 0 0-4.222-3.278h-46.329a4.363 4.363 0 0 0-4.316 3.743l-1.789 12.539s-38.997-1.463-57.454 15.628c-17.678 16.371-12.571 53.111 2.259 87.12 14.827 34.01 27.316 60.999 52.111 63.479 45.836 4.583 117.486-35.324 117.486-35.324s12.22-6.546 23.573-4.8c-2.62-15.717-11.353-27.067-36.671-20.518L387 498.729" clip-rule="evenodd"/>
    <path fill="#FFC999" fill-rule="evenodd" d="M474.5 456.427s4.62 13.425-4.438 25.103l10.622 7.414 6.431 9.905-17.053 1.84-64.214 31.777s72.842 18.102 100.75 1.822c20.933-12.21 11.916-48.939-4.148-83.937 0 0-11.864-4.015-27.95 6.076Z" clip-rule="evenodd"/>
    <path fill="#FFC999" fill-rule="evenodd" d="m348.005 460.544 17.898 38.852 71.586-19.434c21.392-5.677 43.792 1.618 49.467 18.642-10.476 1.31-30.033 6.685-30.033 6.685s-68.754 45.891-103.461 44.256c-24.891-1.175-34.576-30.165-49.405-64.173 0 0 9.026-22.208 43.948-24.828Z" clip-rule="evenodd"/>
    <path fill="#000" d="M400.316 378.095a.873.873 0 0 1 .157 1.731l-.157.014H358.6a.871.871 0 0 1-.157-1.731l.157-.014h41.716Z"/>
    <path fill="#DD936F" d="M387.896 332.934a1.084 1.084 0 0 1 1.47-.435c5.928 3.225 12.072 4.846 18.237 4.93a1.084 1.084 0 1 1-.03 2.168c-6.518-.089-13.007-1.801-19.243-5.193a1.084 1.084 0 0 1-.434-1.47Z"/>
    <path fill="#FFC999" fill-rule="evenodd" d="M397.413 490.681s-26.138-21.9-42.203-20.751c-15.281 1.091-24.447 13.533-21.83 20.517 0 0-3.488 6.113 2.184 8.077-.764 4.475 5.675 4.147 5.675 4.147s-1.089 2.837 3.493 3.491c4.583.656 9.645-8.733 21.543-6.802l31.138-8.679Z" clip-rule="evenodd"/>
    <path fill="#DD936F" d="M354.557 468.275c-7.158.511-14.84 5.61-20.358 12.422-2.316 2.859-3.912 5.674-4.362 7.736l-.053.277c-.294 1.727.298 2.963 1.568 3.368l.079.022-.098.229c-.359.877-.532 1.767-.441 2.652l.043.312c.236 1.335 1.094 2.432 2.577 3.202l.331.16-.001.074c.016 2.132 1.453 3.484 3.669 4.092l.468.116c.469.104.934.17 1.38.209l.123.007.008.088c.052.403.182.812.414 1.211.666 1.152 2.022 1.913 4.102 2.209 1.158.166 2.303-.126 3.662-.829l.414-.223c.843-.472 4.061-2.596 4.099-2.62 4.489-2.835 8.289-3.954 13.347-3.133.148.024.299.017.444-.02l32.338-8.356a1.084 1.084 0 0 0 .413-1.891l-1.166-.921-1.185-.912a164.126 164.126 0 0 0-12.775-8.806c-4.332-2.684-8.542-4.975-12.53-6.749-6.104-2.716-11.465-4.127-15.91-3.959l-.6.033Zm15.629 5.906c3.889 1.731 8.015 3.975 12.269 6.612 3.7 2.293 7.291 4.752 10.629 7.21l1.559 1.162 1.002.763-30.002 7.753.232.036c-5.439-.883-9.622.253-14.289 3.091l-.563.348c-.1.064-3.238 2.135-3.999 2.561-1.168.653-2.004.9-2.712.798-1.474-.21-2.237-.638-2.532-1.149a1.103 1.103 0 0 1-.14-.666l.037-.214c.261-.68-.207-1.4-.915-1.467l-.201-.003a8.775 8.775 0 0 1-2.477-.285c-1.574-.432-2.264-1.191-2.023-2.598a1.083 1.083 0 0 0-.713-1.207c-1.561-.541-2.207-1.266-2.3-2.166-.065-.639.146-1.396.553-2.168.222-.421.442-.742.574-.906.651-.807-.095-1.98-1.102-1.733l-.391.087c-.869.163-.957-.086-.726-1.145.364-1.672 1.805-4.214 3.927-6.834 5.176-6.389 12.368-11.162 18.828-11.624 4.137-.296 9.39 1.037 15.475 3.744Z"/>
    <path fill="#DD936F" d="M354.421 475.838a1.084 1.084 0 0 1 .269 2.151c-4.123.516-8.589 2.868-13.085 6.48a56.6 56.6 0 0 0-5.049 4.602l-.756.792-.916 1.007a14.36 14.36 0 0 0-.236.274 1.084 1.084 0 0 1-1.661-1.394l.537-.613a58.618 58.618 0 0 1 6.724-6.358c4.78-3.84 9.575-6.366 14.173-6.941Zm7.21 5.852a1.084 1.084 0 0 1 .072 2.167c-.362.012-.728.035-1.096.07-5.116.485-10.677 3.106-16.291 7.184a67.672 67.672 0 0 0-7.48 6.331l-.916.925-.073.077a1.084 1.084 0 1 1-1.585-1.478l.649-.667.837-.824a69.626 69.626 0 0 1 7.294-6.117c5.899-4.286 11.786-7.061 17.36-7.589.413-.039.822-.065 1.229-.079Zm-.034 6.892a1.084 1.084 0 0 1 .138 2.164c-1.85.117-4.149.912-6.775 2.287-1.851.97-3.817 2.201-5.848 3.634a85.763 85.763 0 0 0-5.405 4.165l-.848.717-1.328 1.167a1.084 1.084 0 0 1-1.465-1.598l.607-.542.775-.673a87.444 87.444 0 0 1 6.415-5.007c2.103-1.484 4.147-2.765 6.091-3.783 2.872-1.504 5.436-2.39 7.643-2.531Z"/>
    <path fill="#000" d="M337.633 432.177a.874.874 0 0 1 1.049.387l.065.143 9.645 27.107a.873.873 0 0 1-.781 1.164l-.502.032c-.419.03-.905.072-1.454.126a78.05 78.05 0 0 0-5.218.704c-5.399.907-10.796 2.334-15.824 4.389-9.198 3.759-16.091 9.181-19.776 16.532a.872.872 0 1 1-1.56-.782c3.9-7.781 11.121-13.461 20.675-17.366 5.16-2.109 10.679-3.567 16.196-4.494a80.553 80.553 0 0 1 4.514-.633l1.232-.126.469-.043-9.26-26.025a.873.873 0 0 1 .387-1.049l.143-.066Zm144.183 19.59c6.723-2.903 13.862-4.088 20.912-2.552a.873.873 0 0 1-.371 1.705c-6.646-1.448-13.433-.321-19.849 2.45a40.202 40.202 0 0 0-3.576 1.755l-.633.36c-.738.429-1.249.759-1.509.942a.873.873 0 0 1-1.004-1.428l.434-.29c.345-.222.746-.468 1.201-.733a41.589 41.589 0 0 1 4.395-2.209Z"/>
    <path fill="#DD936F" d="M468.639 480.815c.236-.55.873-.805 1.423-.569 3.848 1.649 7.394 4.294 10.622 7.658a48.74 48.74 0 0 1 6.248 8.085l.543.913c.104.182.182.321.232.416a1.084 1.084 0 0 1-.592 1.531l-.159.043-9.88 1.9-9.88 1.9-65.225 32.738a1.086 1.086 0 0 1-1.364-.332l-.091-.151a1.083 1.083 0 0 1 .332-1.363l.15-.092 65.36-32.803.281-.096 18.401-3.539-.266-.426c-.107-.17-.219-.343-.335-.519l-.359-.541a46.626 46.626 0 0 0-4.959-6.163c-3.042-3.169-6.36-5.644-9.913-7.167a1.083 1.083 0 0 1-.569-1.423Z"/>
    <path fill="#253368" d="M354.077 562.172a1.02 1.02 0 0 1 1.291-.643l1.096.346.964.289c.678.2 1.426.412 2.24.636a180.4 180.4 0 0 0 11.947 2.816c28.197 5.686 58.215 6.114 86.521-2.144a1.02 1.02 0 0 1 .571 1.957c-28.668 8.364-59.002 7.931-87.495 2.185a182.175 182.175 0 0 1-12.083-2.848l-1.191-.333c-.569-.161-1.101-.317-1.592-.464l-1.363-.421-.262-.086a1.02 1.02 0 0 1-.644-1.29Zm45.542-284.517c.723 0 1.309.585 1.309 1.308 0 5.027-3.785 9.145-8.514 9.145-4.725 0-8.508-4.118-8.508-9.145a1.308 1.308 0 0 1 2.617 0c0 3.629 2.663 6.529 5.891 6.529 3.232 0 5.897-2.9 5.897-6.529 0-.723.586-1.308 1.308-1.308Zm33.007.899c.686 0 1.242.556 1.242 1.241 0 4.967-3.401 9.078-7.723 9.078-4.323 0-7.723-4.111-7.723-9.078a1.241 1.241 0 0 1 2.482 0c0 3.689 2.405 6.596 5.241 6.596s5.24-2.907 5.24-6.596c0-.685.556-1.241 1.241-1.241Zm-47.789-14.99c4.995-2.108 10.283-1.896 15.281-.291 1.437.462 2.51.928 3.125 1.252a1.309 1.309 0 0 1-1.222 2.315l-.328-.16a21.565 21.565 0 0 0-2.375-.915c-4.455-1.431-9.131-1.618-13.463.21a16.27 16.27 0 0 0-2.31 1.202 1.309 1.309 0 0 1-1.387-2.219 18.907 18.907 0 0 1 2.679-1.394Z"/>
    <path fill="#597EF7" fill-rule="evenodd" d="M306.532 1200.28c-.326 1.44-5.215-49.94-4.981-65.09 20.294 2.68 39.056.77 39.056.77s-2.681 58.58-1.915 64.32c-14.55 8.81-32.16 0-32.16 0Z" clip-rule="evenodd"/>
    <path fill="#4E5C93" fill-rule="evenodd" d="M310.697 1269.8c2.52 20.31 13.444 31.05 24.716 32.24 13.958 1.47 29.156-2.46 31.612-14.97 2.802-14.28-4.548-21.59-12.759-42.01-8.211-20.42-12.129-37.89-15.19-52.43 0 0-10.467-6.13-7.66 11.48 2.276 14.26 7.786 54.37 17.485 57.18-9.446-.77-28.845 6.63-28.845 6.63s6.893-10.72 6.385-14.29c-.511-3.57-6.215-40.19-6.509-51.05-.293-10.74-9.612-9.45-14.103-8.19a2.937 2.937 0 0 0-2.119 3.19c.425 3.57 5.795 62.6 6.987 72.22Z" clip-rule="evenodd"/>
    <path fill="#4E5C93" fill-rule="evenodd" d="M315.719 1215.98s-11.643-24.37 0-26.8c9.19-1.91 17.995-2.3 19.143 0 .428.86.385 8.81 3.446 25.27 3.577 19.22 12.718 41.76 16.082 46.33 5.361 7.27-.384 7.65-13.401 11.1-13.017 3.45-17.611 3.45-21.058-3.45-3.446-6.89-3.446-37.52-4.212-52.45Z" clip-rule="evenodd"/>
    <path fill="#CCD7EE" d="M338.199 1221.99a1.36 1.36 0 0 1 1.76.77 1.36 1.36 0 0 1-.775 1.76c-1.593.62-3.354 1.48-5.251 2.55-1.827 1.03-3.75 2.24-5.738 3.59a124.35 124.35 0 0 0-5.611 4.06l-1.014.79h.064c1.533.06 3.16.23 4.872.51l.863.15c3.347.6 6.896 1.57 10.524 2.8 2.223.76 4.34 1.57 6.284 2.38l.968.42 1.527.68c1.237.58.937 2.42-.42 2.58-5.129.6-10.638 3.35-16.154 7.57a66.166 66.166 0 0 0-6.179 5.38c-.392.38-.757.75-1.094 1.1l-.636.66c-.296.32-.497.54-.596.66-.494.56-1.353.62-1.918.12a1.349 1.349 0 0 1-.128-1.91l.479-.53.178-.19a69.142 69.142 0 0 1 8.242-7.45c4.225-3.23 8.475-5.67 12.653-7.03l.516-.16-.832-.33c-.806-.31-1.635-.62-2.483-.92l-1.284-.45c-3.508-1.2-6.931-2.13-10.129-2.71-3.512-.63-6.618-.81-9.197-.45-1.345.18-2.099-1.51-1.065-2.39l.793-.66 1.228-.99c.292-.23.597-.48.914-.72 2.262-1.78 4.664-3.56 7.106-5.22 2.047-1.39 4.034-2.64 5.931-3.71 2.002-1.13 3.876-2.04 5.602-2.71Z"/>
    <path fill="#CCD7EE" d="M317.214 1225.5c2.63-.58 5.814-.61 9.443-.17 2.907.35 5.994.98 9.139 1.82 1.389.36 2.72.75 3.967 1.15l1.304.42 1.545.54c1.182.44 1.181 2.11-.001 2.55-4.521 1.67-8.92 4.29-13.11 7.61a66.13 66.13 0 0 0-6.452 5.83l-1.04 1.09-.526.57 1.736.04c.479.01.973.02 1.482.04l.774.04c3.912.16 7.776.49 11.397 1.02 6.547.95 11.725 2.47 15.081 4.7.625.42.794 1.26.377 1.89a1.37 1.37 0 0 1-1.885.38c-2.94-1.96-7.785-3.38-13.965-4.28-3.521-.51-7.295-.83-11.122-1-1.793-.08-3.42-.11-4.813-.12l-1.988.01c-1.145.02-1.805-1.29-1.102-2.19l.567-.7.169-.2c.59-.7 1.278-1.47 2.059-2.3a70.915 70.915 0 0 1 7.564-6.96c3.227-2.55 6.582-4.72 10.04-6.39l.428-.21-.259-.08c-.624-.19-1.266-.37-1.925-.56l-.998-.27c-3.033-.8-6-1.41-8.768-1.74-3.35-.4-6.244-.38-8.529.12a1.358 1.358 0 1 1-.589-2.65Z"/>
    <path fill="#CCD7EE" fill-rule="evenodd" d="M311.89 1273.8s27.567-22.98 52.837-6.13c6.317 14.08 2.665 22.45-.382 26.8-1.261 1.8-3.652 4.31-5.715 5.05-6.154 2.22-22.288 6.68-33.72-.84-14.55-9.57-13.02-24.88-13.02-24.88Z" clip-rule="evenodd"/>
    <path fill="#A3B5D6" d="M362.603 1267.54c.352-.19.79-.05.977.3 3.566 6.69-.176 15.36-5.344 18.81-3.679 2.45-16.663 4.67-26.978 4.2-5.123-.23-9.243-3.4-12.453-8.5a34.29 34.29 0 0 1-2.876-5.74c-.201-.51-.379-1-.534-1.45l-.264-.81c-.05-.16-.086-.28-.108-.36a.72.72 0 0 1 .505-.89.72.72 0 0 1 .888.5l.205.67.296.87c.109.3.228.62.357.95.737 1.87 1.652 3.75 2.753 5.49 2.983 4.74 6.73 7.62 11.297 7.83 10.036.46 22.741-1.72 26.111-3.96 4.614-3.08 8.032-11 4.871-16.93a.727.727 0 0 1 .297-.98Z"/>
    <path fill="#CCD7EE" d="M301.373 1144.1c.157-.74.879-1.2 1.614-1.05l1.139.23.579.1c1.401.25 2.994.5 4.748.73 8.809 1.17 17.965 1.49 26.492.44.856-.11 1.701-.23 2.532-.36.742-.12 1.439.38 1.558 1.13.119.74-.386 1.43-1.128 1.55-.864.14-1.741.27-2.629.38-8.789 1.08-18.163.75-27.183-.44-1.496-.2-2.878-.41-4.13-.62l-1.449-.26-1.098-.22a1.359 1.359 0 0 1-1.045-1.61Zm24.678 66.06.185-.01 1.094.06c.858.05 1.814.12 2.843.22 2.943.26 5.888.65 8.646 1.2 9.57 1.88 14.967 5.1 13.16 10.53-1.67 5-6.803 4.31-13.796.15-1.489-.88-3.046-1.92-4.65-3.07-1.886-1.36-3.74-2.81-5.485-4.26l-.447-.38-.647-.55-.864 1.23-.429.6a109.511 109.511 0 0 1-5.317 6.82c-1.863 2.2-3.675 4.12-5.404 5.7-4.662 4.24-8.582 5.86-11.535 3.59-1.788-1.38-1.997-3.35-.855-5.4.851-1.52 2.46-3.16 4.735-4.95 1.726-1.36 3.813-2.78 6.185-4.24 2.431-1.49 5.03-2.96 7.629-4.32l1.312-.69 2.162-1.08c.057-.03.114-.05.172-.07l.116-.03.028-.11c.161-.51.616-.89 1.162-.94Zm-3.332 5.14-.354.18a128.927 128.927 0 0 0-7.469 4.24c-2.291 1.41-4.296 2.77-5.931 4.06-2.016 1.58-3.404 3-4.041 4.14-.532.95-.481 1.44.139 1.91 1.475 1.14 4.289-.02 8.048-3.44 1.632-1.49 3.366-3.33 5.159-5.44 1.435-1.7 2.844-3.49 4.189-5.3l.26-.35Zm7.387-2.15.712.59a97.87 97.87 0 0 0 4.303 3.29 61.245 61.245 0 0 0 4.451 2.94c5.627 3.35 9 3.8 9.827 1.33.993-2.98-3.113-5.43-11.106-7.01a81.287 81.287 0 0 0-6.937-1.02l-1.25-.12Zm-15.275-15.24c.686-.06 1.299.39 1.448 1.05l.029.18 1.02 11.23c.067.75-.484 1.41-1.232 1.48-.685.06-1.298-.4-1.447-1.05l-.029-.18-1.02-11.24a1.36 1.36 0 0 1 1.231-1.47Zm17.868-3.58c.686-.06 1.298.4 1.448 1.05l.029.19 1.019 11.23c.068.74-.483 1.41-1.231 1.47a1.348 1.348 0 0 1-1.448-1.05l-.029-.18-1.019-11.23a1.362 1.362 0 0 1 1.231-1.48Z"/>
    <path fill="#FFC999" d="m466 461.5 8-5 3.5 4-4 19.5-3 .5-2 1.5-3-1.5.5-19Z"/>
    <path stroke="#000" stroke-linecap="round" stroke-width="1.5" d="M462 435.5c.833 4 2.5 10 3 15 .677 6.767.167 20.667 0 29.5"/>
    <path stroke="#253368" stroke-linecap="round" stroke-width="1.5" d="M363.5 612 339 739m116.65-136 51.776 285.271"/>
  </g>
  <mask id="k" width="252" height="289" x="773" y="776" maskUnits="userSpaceOnUse" style="mask-type:alpha">
    <path fill="url(#j)" d="M773.781 776.635h251.044v287.992H773.781z"/>
  </mask>
  <g mask="url(#k)" opacity=".8">
    <path fill="url(#l)" d="m906.001 793.764 62.028 33.627 29.653 49.216-44.568 161.603L906 1010.96l.001-217.196Z"/>
    <path fill="url(#m)" fill-opacity=".7" d="M906 793.764v111.607l54.783-32.267 7.245-45.713L906 793.764Z" opacity=".8"/>
    <g opacity=".8">
      <path fill="url(#n)" fill-opacity=".7" d="m905.999 793.766-62.038 33.632-29.643 49.21 44.568 161.602L906 1010.96l-.001-217.194Z"/>
      <path fill="url(#o)" fill-opacity=".5" d="m905.999 793.766-62.038 33.632-29.643 49.21 44.568 161.602L906 1010.96l-.001-217.194Z"/>
    </g>
    <path fill="url(#p)" d="M953.116 1038.21 906 1010.96v54.5l47.116-27.25Z"/>
    <path fill="url(#q)" fill-opacity=".5" d="m906.001 879.579-31.197-18.043 31.197-18.042 31.197 18.042-31.197 18.043Z"/>
    <path fill="url(#r)" fill-opacity=".8" d="M858.884 1038.21 906 1065.46v-54.5l-47.116 27.25Z"/>
    <path fill="url(#s)" fill-opacity=".6" d="m906.001 1053.97-25.271-14.61 25.271-14.62 25.271 14.62-25.271 14.61Z"/>
    <path fill="url(#t)" d="m906 793.764-.001 111.607-54.782-32.267-7.245-45.713L906 793.764Z" opacity=".8"/>
    <path fill="url(#u)" fill-opacity=".7" d="m814.319 876.608 29.653-49.217 7.245 45.713-36.898 3.504Z"/>
    <path fill="url(#v)" fill-opacity=".7" d="m906.001 922.097-50.773-29.364 50.773-29.364 50.773 29.364-50.773 29.364Z"/>
    <path fill="url(#w)" fill-opacity=".7" d="m906.001 922.097-50.773-29.364 50.773-29.364 50.773 29.364-50.773 29.364Z"/>
    <path fill="url(#x)" fill-opacity=".9" d="m906.002 863.37-50.773 29.362 19.576-31.197 31.197-18.042v19.877Z"/>
    <path fill="url(#y)" fill-opacity=".6" d="m906.001 863.362 50.773 29.363-25.503 146.635-25.27-14.62V863.362Z"/>
    <path fill="url(#z)" fill-opacity=".9" d="m906 863.362-50.772 29.363 25.503 146.635L906 1024.74V863.362Z"/>
    <path fill="url(#A)" fill-opacity=".9" d="m906.002 863.37 50.773 29.362-19.576-31.197-31.197-18.042v19.877Z"/>
    <path fill="url(#B)" fill-opacity=".7" d="m997.681 876.608-29.653-49.217-7.244 45.713 36.897 3.504Z"/>
  </g>
  <g filter="url(#C)">
    <ellipse cx="906" cy="821.333" fill="url(#D)" fill-opacity=".6" rx="173" ry="75.552"/>
  </g>
  <g filter="url(#E)">
    <ellipse cx="906" cy="821.333" fill="url(#F)" fill-opacity=".6" rx="122.884" ry="53.666"/>
  </g>
  <path fill="url(#G)" fill-opacity=".5" d="m905.999 759.097 90.044 52.076-90.044 52.076-90.045-52.076 90.045-52.076Z"/>
  <path fill="url(#H)" d="m905.999 828.625-62.028-33.626-29.653-49.217 44.568-161.599L906 611.432l-.001 217.193Z"/>
  <path fill="url(#I)" fill-opacity=".7" d="m906 828.625-.001-111.607-54.782 32.267-7.245 45.713L906 828.625Z" opacity=".8"/>
  <g opacity=".8">
    <path fill="url(#J)" fill-opacity=".7" d="m906 828.624 62.039-33.633 29.642-49.209-44.567-161.599L906 611.432v217.192Z"/>
    <path fill="url(#K)" fill-opacity=".5" d="m906 828.624 62.039-33.633 29.642-49.209-44.567-161.599L906 611.432v217.192Z"/>
  </g>
  <path fill="url(#L)" d="M858.884 584.183 906 611.432v-54.498l-47.116 27.249Z"/>
  <path fill="url(#M)" fill-opacity=".5" d="m905.999 742.81 31.197 18.043-31.197 18.042-31.197-18.042 31.197-18.043Z"/>
  <path fill="url(#N)" fill-opacity=".8" d="M953.116 584.183 906 556.934v54.498l47.116-27.249Z"/>
  <path fill="url(#O)" fill-opacity=".6" d="m905.999 568.418 25.271 14.615-25.271 14.616-25.271-14.616 25.271-14.615Z"/>
  <path fill="url(#P)" d="m906 828.625.001-111.607 54.783 32.267 7.245 45.713L906 828.625Z" opacity=".8"/>
  <path fill="url(#Q)" fill-opacity=".7" d="m997.681 745.781-29.653 49.217-7.244-45.713 36.897-3.504Z"/>
  <path fill="url(#R)" fill-opacity=".7" d="m905.999 700.292 50.773 29.364-50.773 29.364-50.773-29.364 50.773-29.364Z"/>
  <path fill="url(#S)" fill-opacity=".7" d="m905.999 700.292 50.773 29.364-50.773 29.364-50.773-29.364 50.773-29.364Z"/>
  <path fill="url(#T)" fill-opacity=".9" d="m905.998 759.019 50.773-29.363-19.576 31.198-31.197 18.042v-19.877Z"/>
  <path fill="url(#U)" fill-opacity=".6" d="m905.999 759.027-50.773-29.363 25.503-146.631 25.27 14.616v161.378Z"/>
  <path fill="url(#V)" fill-opacity=".9" d="m906 759.027 50.772-29.363-25.503-146.631L906 597.649v161.378Z"/>
  <path fill="url(#W)" fill-opacity=".9" d="m905.998 759.019-50.773-29.363 19.576 31.198 31.197 18.042v-19.877Z"/>
  <path fill="url(#X)" fill-opacity=".7" d="m814.319 745.781 29.653 49.217 7.245-45.713-36.898-3.504Z"/>
  <defs>
    <linearGradient id="h" x1="402" x2="800" y1="272" y2="822" gradientUnits="userSpaceOnUse">
      <stop stop-color="#C961DE"/>
      <stop offset="1" stop-color="#2954A3"/>
    </linearGradient>
    <linearGradient id="j" x1="899.303" x2="899.303" y1="662.877" y2="974.172" gradientUnits="userSpaceOnUse">
      <stop/>
      <stop offset="1" stop-opacity="0"/>
    </linearGradient>
    <linearGradient id="l" x1="725.541" x2="712.318" y1="1055.31" y2="872.577" gradientUnits="userSpaceOnUse">
      <stop stop-color="#3D79ED"/>
      <stop offset=".266" stop-color="#3458C1" stop-opacity=".7"/>
      <stop offset=".619" stop-color="#3753B8" stop-opacity=".7"/>
      <stop offset=".896" stop-color="#5BB0FF" stop-opacity=".9"/>
      <stop offset="1" stop-color="#5BB0FF" stop-opacity=".6"/>
    </linearGradient>
    <linearGradient id="m" x1="913.336" x2="945.246" y1="808.493" y2="879.262" gradientUnits="userSpaceOnUse">
      <stop offset=".047" stop-color="#fff"/>
      <stop offset=".427" stop-color="#DFF4FF"/>
      <stop offset=".995" stop-color="#0E42C8"/>
    </linearGradient>
    <linearGradient id="n" x1="814.319" x2="920.514" y1="787.031" y2="868.055" gradientUnits="userSpaceOnUse">
      <stop offset=".28" stop-color="#fff"/>
      <stop offset=".47" stop-color="#FF79DA"/>
      <stop offset=".693" stop-color="#3D3AE3" stop-opacity=".9"/>
    </linearGradient>
    <linearGradient id="o" x1="814.319" x2="919.298" y1="798.358" y2="899.112" gradientUnits="userSpaceOnUse">
      <stop offset=".161" stop-color="#fff"/>
      <stop offset="1" stop-color="#fff" stop-opacity="0"/>
    </linearGradient>
    <linearGradient id="p" x1="905.884" x2="930.625" y1="1064.55" y2="1024.01" gradientUnits="userSpaceOnUse">
      <stop stop-color="#1AD6FF"/>
      <stop offset="1" stop-color="#496BE4" stop-opacity=".6"/>
      <stop offset="1" stop-color="#1F3CA3"/>
    </linearGradient>
    <linearGradient id="q" x1="888.095" x2="931.026" y1="851.358" y2="861.536" gradientUnits="userSpaceOnUse">
      <stop stop-color="#81FF6C"/>
      <stop offset="1" stop-color="#31F3FF"/>
    </linearGradient>
    <linearGradient id="r" x1="858.884" x2="903.797" y1="1041" y2="1045.17" gradientUnits="userSpaceOnUse">
      <stop stop-color="#FF79C9"/>
      <stop offset="1" stop-color="#1F3CA3"/>
    </linearGradient>
    <linearGradient id="s" x1="885.614" x2="915.423" y1="1035.93" y2="1039.36" gradientUnits="userSpaceOnUse">
      <stop stop-color="#52FF6E"/>
      <stop offset="1" stop-color="#31FFFF"/>
    </linearGradient>
    <linearGradient id="t" x1="856.104" x2="879.305" y1="811.473" y2="893.818" gradientUnits="userSpaceOnUse">
      <stop offset=".104" stop-color="#fff"/>
      <stop offset=".437" stop-color="#FFAACE" stop-opacity=".8"/>
      <stop offset=".719" stop-color="#6F97FF" stop-opacity=".8"/>
    </linearGradient>
    <linearGradient id="u" x1="832.768" x2="851.217" y1="840.09" y2="876.608" gradientUnits="userSpaceOnUse">
      <stop stop-color="#fff"/>
      <stop offset=".591" stop-color="#FF94D4"/>
      <stop offset="1" stop-color="#C994FF"/>
    </linearGradient>
    <linearGradient id="v" x1="876.859" x2="946.73" y1="876.168" y2="892.733" gradientUnits="userSpaceOnUse">
      <stop stop-color="#81FF6C"/>
      <stop offset="1" stop-color="#31F3FF"/>
    </linearGradient>
    <linearGradient id="w" x1="906.001" x2="906.001" y1="865.477" y2="923.437" gradientUnits="userSpaceOnUse">
      <stop stop-color="#fff"/>
      <stop offset="1" stop-color="#fff" stop-opacity="0"/>
    </linearGradient>
    <linearGradient id="x" x1="852.753" x2="904.716" y1="892.732" y2="845.814" gradientUnits="userSpaceOnUse">
      <stop offset=".15" stop-color="#fff"/>
      <stop offset=".3" stop-color="#8CFF31"/>
      <stop offset=".449" stop-color="#45C3EB"/>
      <stop offset="1" stop-color="#72E6FF"/>
    </linearGradient>
    <linearGradient id="y" x1="928.67" x2="1009.21" y1="863.362" y2="919.796" gradientUnits="userSpaceOnUse">
      <stop stop-color="#6CFFED"/>
      <stop offset="1" stop-color="#197F9F"/>
    </linearGradient>
    <linearGradient id="z" x1="728.561" x2="812.686" y1="929.344" y2="1017.43" gradientUnits="userSpaceOnUse">
      <stop offset=".465" stop-color="#fff"/>
      <stop offset=".79" stop-color="#6DF390"/>
      <stop offset="1" stop-color="#21CAFF" stop-opacity=".9"/>
    </linearGradient>
    <linearGradient id="A" x1="956.775" x2="907.286" y1="892.732" y2="845.882" gradientUnits="userSpaceOnUse">
      <stop offset=".125" stop-color="#fff"/>
      <stop offset=".298" stop-color="#8CFF31"/>
      <stop offset=".448" stop-color="#5BF5FF"/>
    </linearGradient>
    <linearGradient id="B" x1="966.098" x2="973.252" y1="823.397" y2="876.608" gradientUnits="userSpaceOnUse">
      <stop stop-color="#DFF4FF"/>
      <stop offset=".995" stop-color="#0E42C8"/>
    </linearGradient>
    <linearGradient id="G" x1="951.021" x2="860.977" y1="766.151" y2="856.195" gradientUnits="userSpaceOnUse">
      <stop stop-color="#6C7BFF"/>
      <stop offset="1" stop-color="#31B5FF"/>
    </linearGradient>
    <linearGradient id="H" x1="1086.46" x2="1099.68" y1="567.08" y2="749.812" gradientUnits="userSpaceOnUse">
      <stop stop-color="#3D79ED"/>
      <stop offset=".266" stop-color="#3458C1" stop-opacity=".7"/>
      <stop offset=".619" stop-color="#3753B8" stop-opacity=".7"/>
      <stop offset=".896" stop-color="#5BB0FF" stop-opacity=".9"/>
      <stop offset="1" stop-color="#5BB0FF" stop-opacity=".6"/>
    </linearGradient>
    <linearGradient id="I" x1="898.664" x2="866.754" y1="813.896" y2="743.127" gradientUnits="userSpaceOnUse">
      <stop offset=".047" stop-color="#fff"/>
      <stop offset=".427" stop-color="#DFF4FF"/>
      <stop offset=".995" stop-color="#0E42C8"/>
    </linearGradient>
    <linearGradient id="J" x1="997.681" x2="891.486" y1="835.359" y2="754.335" gradientUnits="userSpaceOnUse">
      <stop offset=".28" stop-color="#fff"/>
      <stop offset=".47" stop-color="#FF79DA"/>
      <stop offset=".693" stop-color="#3D3AE3" stop-opacity=".9"/>
    </linearGradient>
    <linearGradient id="K" x1="997.681" x2="892.702" y1="824.031" y2="723.278" gradientUnits="userSpaceOnUse">
      <stop offset=".161" stop-color="#fff"/>
      <stop offset="1" stop-color="#fff" stop-opacity="0"/>
    </linearGradient>
    <linearGradient id="L" x1="906.116" x2="881.375" y1="557.839" y2="598.379" gradientUnits="userSpaceOnUse">
      <stop stop-color="#1AD6FF"/>
      <stop offset="1" stop-color="#496BE4" stop-opacity=".6"/>
      <stop offset="1" stop-color="#1F3CA3"/>
    </linearGradient>
    <linearGradient id="M" x1="923.905" x2="880.974" y1="771.031" y2="760.853" gradientUnits="userSpaceOnUse">
      <stop stop-color="#81FF6C"/>
      <stop offset="1" stop-color="#31F3FF"/>
    </linearGradient>
    <linearGradient id="N" x1="953.116" x2="908.203" y1="581.388" y2="577.215" gradientUnits="userSpaceOnUse">
      <stop stop-color="#FF79C9"/>
      <stop offset="1" stop-color="#1F3CA3"/>
    </linearGradient>
    <linearGradient id="O" x1="926.386" x2="896.577" y1="586.456" y2="583.033" gradientUnits="userSpaceOnUse">
      <stop stop-color="#52FF6E"/>
      <stop offset="1" stop-color="#31FFFF"/>
    </linearGradient>
    <linearGradient id="P" x1="955.897" x2="932.695" y1="810.915" y2="728.57" gradientUnits="userSpaceOnUse">
      <stop offset=".104" stop-color="#fff"/>
      <stop offset=".437" stop-color="#FFAACE" stop-opacity=".8"/>
      <stop offset=".719" stop-color="#6F97FF" stop-opacity=".8"/>
    </linearGradient>
    <linearGradient id="Q" x1="979.232" x2="960.784" y1="782.299" y2="745.781" gradientUnits="userSpaceOnUse">
      <stop stop-color="#fff"/>
      <stop offset=".591" stop-color="#FF94D4"/>
      <stop offset="1" stop-color="#C994FF"/>
    </linearGradient>
    <linearGradient id="R" x1="935.141" x2="865.27" y1="746.221" y2="729.656" gradientUnits="userSpaceOnUse">
      <stop stop-color="#81FF6C"/>
      <stop offset="1" stop-color="#31F3FF"/>
    </linearGradient>
    <linearGradient id="S" x1="905.999" x2="905.999" y1="756.912" y2="698.951" gradientUnits="userSpaceOnUse">
      <stop stop-color="#fff"/>
      <stop offset="1" stop-color="#fff" stop-opacity="0"/>
    </linearGradient>
    <linearGradient id="T" x1="959.247" x2="907.284" y1="729.656" y2="776.575" gradientUnits="userSpaceOnUse">
      <stop offset=".15" stop-color="#fff"/>
      <stop offset=".3" stop-color="#8CFF31"/>
      <stop offset=".449" stop-color="#45C3EB"/>
      <stop offset="1" stop-color="#72E6FF"/>
    </linearGradient>
    <linearGradient id="U" x1="883.33" x2="802.792" y1="759.027" y2="702.593" gradientUnits="userSpaceOnUse">
      <stop stop-color="#6CFFED"/>
      <stop offset="1" stop-color="#197F9F"/>
    </linearGradient>
    <linearGradient id="V" x1="1083.44" x2="999.314" y1="693.044" y2="604.961" gradientUnits="userSpaceOnUse">
      <stop offset=".465" stop-color="#fff"/>
      <stop offset=".79" stop-color="#6DF390"/>
      <stop offset="1" stop-color="#21CAFF" stop-opacity=".9"/>
    </linearGradient>
    <linearGradient id="W" x1="855.225" x2="904.714" y1="729.656" y2="776.507" gradientUnits="userSpaceOnUse">
      <stop offset=".125" stop-color="#fff"/>
      <stop offset=".298" stop-color="#8CFF31"/>
      <stop offset=".448" stop-color="#5BF5FF"/>
    </linearGradient>
    <linearGradient id="X" x1="845.902" x2="838.748" y1="798.992" y2="745.781" gradientUnits="userSpaceOnUse">
      <stop stop-color="#DFF4FF"/>
      <stop offset=".995" stop-color="#0E42C8"/>
    </linearGradient>
    <radialGradient id="b" cx="0" cy="0" r="1" gradientTransform="rotate(89.388 -19.48 575.278) scale(482.785)" gradientUnits="userSpaceOnUse">
      <stop stop-color="#2954A3"/>
      <stop offset="1" stop-color="#101241"/>
    </radialGradient>
    <radialGradient id="c" cx="0" cy="0" r="1" gradientTransform="matrix(508.767 0 0 237.904 642.381 755.459)" gradientUnits="userSpaceOnUse">
      <stop offset=".458" stop-color="#fff"/>
      <stop offset=".718" stop-color="#fff" stop-opacity="0"/>
      <stop offset=".782" stop-color="#fff" stop-opacity="0"/>
      <stop offset="1" stop-color="#fff" stop-opacity=".4"/>
    </radialGradient>
    <radialGradient id="d" cx="0" cy="0" r="1" gradientTransform="matrix(508.767 0 0 237.905 642.381 757.059)" gradientUnits="userSpaceOnUse">
      <stop offset=".458" stop-color="#fff"/>
      <stop offset=".718" stop-color="#fff" stop-opacity="0"/>
      <stop offset=".782" stop-color="#fff" stop-opacity="0"/>
      <stop offset="1" stop-color="#fff" stop-opacity=".4"/>
    </radialGradient>
    <radialGradient id="e" cx="0" cy="0" r="1" gradientTransform="matrix(508.767 0 0 237.015 642.381 761.825)" gradientUnits="userSpaceOnUse">
      <stop offset=".458" stop-color="#fff"/>
      <stop offset=".718" stop-color="#fff" stop-opacity="0"/>
      <stop offset=".782" stop-color="#fff" stop-opacity="0"/>
      <stop offset="1" stop-color="#fff" stop-opacity=".4"/>
    </radialGradient>
    <radialGradient id="f" cx="0" cy="0" r="1" gradientTransform="matrix(508.767 0 0 236.29 642.381 768.847)" gradientUnits="userSpaceOnUse">
      <stop offset=".458" stop-color="#fff"/>
      <stop offset=".718" stop-color="#fff" stop-opacity="0"/>
      <stop offset=".782" stop-color="#fff" stop-opacity="0"/>
      <stop offset="1" stop-color="#fff" stop-opacity=".4"/>
    </radialGradient>
    <radialGradient id="g" cx="0" cy="0" r="1" gradientTransform="matrix(508.767 0 0 235.041 642.381 778.721)" gradientUnits="userSpaceOnUse">
      <stop offset=".458" stop-color="#fff"/>
      <stop offset=".718" stop-color="#fff" stop-opacity="0"/>
      <stop offset=".782" stop-color="#fff" stop-opacity="0"/>
      <stop offset="1" stop-color="#fff" stop-opacity=".4"/>
    </radialGradient>
    <radialGradient id="D" cx="0" cy="0" r="1" gradientTransform="matrix(0 75.5522 -173 0 906 821.333)" gradientUnits="userSpaceOnUse">
      <stop stop-color="#739AFF"/>
      <stop offset="1" stop-color="#6978FF" stop-opacity="0"/>
    </radialGradient>
    <radialGradient id="F" cx="0" cy="0" r="1" gradientTransform="matrix(0 53.6655 -122.884 0 906 821.333)" gradientUnits="userSpaceOnUse">
      <stop stop-color="#739AFF"/>
      <stop offset="1" stop-color="#6978FF" stop-opacity="0"/>
    </radialGradient>
    <filter id="a" width="1202.6" height="1202.6" x=".2" y=".2" color-interpolation-filters="sRGB" filterUnits="userSpaceOnUse">
      <feFlood flood-opacity="0" result="BackgroundImageFix"/>
      <feBlend in="SourceGraphic" in2="BackgroundImageFix" result="shape"/>
      <feGaussianBlur result="effect1_foregroundBlur_94_1906" stdDeviation="85.9"/>
    </filter>
    <filter id="C" width="360.816" height="165.921" x="725.592" y="738.373" color-interpolation-filters="sRGB" filterUnits="userSpaceOnUse">
      <feFlood flood-opacity="0" result="BackgroundImageFix"/>
      <feBlend in="SourceGraphic" in2="BackgroundImageFix" result="shape"/>
      <feGaussianBlur result="effect1_foregroundBlur_94_1906" stdDeviation="3.704"/>
    </filter>
    <filter id="E" width="260.583" height="122.147" x="775.709" y="760.259" color-interpolation-filters="sRGB" filterUnits="userSpaceOnUse">
      <feFlood flood-opacity="0" result="BackgroundImageFix"/>
      <feBlend in="SourceGraphic" in2="BackgroundImageFix" result="shape"/>
      <feGaussianBlur result="effect1_foregroundBlur_94_1906" stdDeviation="3.704"/>
    </filter>
    <clipPath id="i">
      <path fill="#fff" d="M276 24h630v505c0 173.97-141.03 315-315 315S276 702.97 276 529V24Z"/>
    </clipPath>
  </defs>
</svg>
