<svg width="74" height="74" viewBox="0 0 74 74" fill="none" xmlns="http://www.w3.org/2000/svg">
<g clip-path="url(#clip0_104_762)">
<path d="M36.9885 56.3186C32.8213 51.0924 30.377 46.5136 29.5561 42.587C28.749 39.4189 29.0612 36.889 30.4603 34.9881C31.9287 32.7959 34.1094 31.7367 36.9885 31.7367C39.8675 31.7367 42.0598 32.7959 43.5282 35.0136C44.9018 36.8936 45.251 39.4212 44.407 42.6124C43.5028 46.6107 41.0585 51.1872 36.9746 56.3441L36.9885 56.3186ZM66.5815 59.8359C66.015 63.677 63.4018 66.8567 59.8013 68.4107C52.8638 71.4331 45.9864 66.6162 40.108 60.0764C49.8275 47.8988 51.6335 38.4199 47.4548 32.2894C45.0105 28.7721 41.4932 27.0632 36.9885 27.0632C27.9188 27.0632 22.9331 34.7361 24.8964 43.6484C26.0295 48.4792 29.0635 53.9576 33.8805 60.088C30.858 63.4249 27.9905 65.8091 25.4607 67.2776C23.4973 68.3367 21.6196 68.9888 19.8228 69.1437C11.5718 70.3717 5.09215 62.3751 8.03134 54.1125C8.44065 53.0395 9.25928 51.0901 10.6445 48.0653L10.7161 47.8965C15.2325 38.1054 20.7131 26.9753 27.0008 14.6312L27.1696 14.2219L28.9525 10.7901C30.3493 8.24868 30.9158 7.11556 33.1196 5.71881C34.1926 5.08056 35.4923 4.75449 36.9607 4.75449C39.8999 4.75449 42.187 6.46574 43.1767 7.85093C43.6577 8.58631 44.2358 9.57374 44.9712 10.7901L46.694 14.1502L46.9345 14.6312C53.2222 26.9776 58.7144 38.0822 63.2053 47.8965L63.277 47.9797L64.9281 51.7376L65.904 54.0986C66.6509 55.9787 66.8197 57.8564 66.5653 59.8197L66.5815 59.8359ZM70.3393 52.4776C69.7728 50.6715 68.7853 48.5509 67.569 46.0211V45.9239C61.7507 33.5775 56.3441 22.4729 51.2126 12.5014L50.875 12.0065C47.2143 4.50243 44.5989 -0.00231934 36.9885 -0.00231934C29.4728 -0.00231934 26.2816 5.22393 23.0163 12.0181L22.7643 12.5129C17.6213 22.4729 12.2262 33.5914 6.41953 45.9355V46.1043L4.69671 49.8621C4.05846 51.4161 3.72084 52.2232 3.63759 52.4752C-0.529536 63.9175 8.05678 73.963 18.4399 73.963C18.5231 73.963 18.8492 73.963 19.247 73.8913H20.4032C25.7983 73.2299 31.3506 69.7959 36.9885 63.6654C42.6263 69.7959 48.2018 73.2276 53.5853 73.8913H54.73C55.1393 73.963 55.4653 73.963 55.5486 73.963C65.9317 73.9746 74.5065 63.9175 70.3393 52.4752V52.4776Z" fill="#8773EE"/>
</g>
<defs>
<clipPath id="clip0_104_762">
<rect width="74" height="74" fill="white"/>
</clipPath>
</defs>
</svg>
