<svg width="74" height="74" viewBox="0 0 74 74" fill="none" xmlns="http://www.w3.org/2000/svg">
<path d="M59.6191 55.5651C59.3807 55.5 59.0916 55.5361 58.7592 55.659C54.3076 57.6969 49.9789 59.1494 45.773 60.0094C36.6893 61.8594 27.8367 60.891 19.2227 57.1115C16.8307 56.0565 13.5065 54.2787 9.25001 51.7639C9.14033 51.6773 9.00654 51.6268 8.867 51.6194C8.72247 51.6121 8.59962 51.6266 8.484 51.6844C8.36837 51.7422 8.28165 51.8145 8.21661 51.9084C8.15157 52.0024 8.13712 52.1324 8.18771 52.2986C8.23107 52.4576 8.33946 52.6383 8.52013 52.8334C9.27169 53.715 10.2039 54.6545 11.3096 55.6518C12.4152 56.649 13.8822 57.7764 15.7106 59.0338C17.5389 60.2912 19.4539 61.4113 21.4412 62.3869C23.4357 63.3625 25.7482 64.1863 28.3859 64.8512C31.0236 65.516 33.6613 65.8485 36.2918 65.8485C38.9078 65.8485 41.4516 65.5811 43.9158 65.0608C46.3873 64.5332 48.4685 63.9117 50.1668 63.1891C51.8578 62.4737 53.4187 61.6715 54.8496 60.8043C56.2805 59.9371 57.3355 59.2 58.0221 58.6147C58.7086 58.0221 59.2 57.5596 59.4818 57.2127C59.8142 56.8008 59.9805 56.4467 59.9805 56.136C59.9877 55.8108 59.8576 55.6229 59.6191 55.5651ZM38.1129 25.1557C37.0145 25.2496 35.692 25.452 34.1383 25.7555C32.5846 26.0518 31.1465 26.4275 29.8168 26.8684C28.4871 27.3092 27.1285 27.9234 25.7482 28.7039C24.3607 29.4844 23.1828 30.3805 22.2072 31.3777C21.2316 32.375 20.4367 33.6252 19.8152 35.1356C19.1938 36.6387 18.883 38.2936 18.883 40.1002C18.883 42.0586 19.2227 43.8002 19.9164 45.3395C20.6029 46.8787 21.5207 48.0856 22.677 48.9817C23.826 49.8777 25.134 50.5787 26.5793 51.0918C28.0246 51.6049 29.5566 51.8361 31.1465 51.7711C32.7363 51.7061 34.29 51.4604 35.8004 51.0268C37.3035 50.6004 38.7199 49.9139 40.0352 48.9817C41.3504 48.0494 42.4271 46.9438 43.2727 45.6791C43.5834 46.1561 43.858 46.5102 44.1037 46.7414L44.7324 47.3846C45.1516 47.811 45.7947 48.4397 46.6619 49.2707C47.5219 50.1018 48.4035 50.9111 49.2851 51.7061L56.8297 44.4867L56.3961 44.1326C56.0853 43.8941 55.7168 43.5545 55.2976 43.0992C54.8785 42.6512 54.4594 42.1525 54.0547 41.6178C53.6428 41.083 53.2887 40.4543 52.9924 39.7461C52.6961 39.0379 52.5443 38.3514 52.5443 37.6865V18.6951C52.5443 17.9652 52.407 17.1775 52.1324 16.3248C51.8506 15.4793 51.3592 14.5543 50.6365 13.557C49.9139 12.5598 49.0178 11.6637 47.9482 10.8832C46.8715 10.1027 45.4406 9.43789 43.6412 8.90312C41.849 8.36836 39.84 8.10098 37.6287 8.10098C35.3668 8.10098 33.2639 8.36836 31.2982 8.88867C29.3398 9.41621 27.6633 10.1172 26.2613 10.9988C24.8666 11.8805 23.667 12.8994 22.6697 14.0629C21.6725 15.2264 20.9281 16.4404 20.444 17.7051C19.9598 18.9697 19.7141 20.2488 19.7141 21.5424L29.4844 22.4023C29.8818 21.2172 30.4166 20.191 31.0742 19.3094C31.7391 18.4277 32.3678 17.7918 32.9387 17.3943C33.5168 16.9969 34.1383 16.6789 34.7959 16.4404C35.4607 16.202 35.9088 16.0791 36.14 16.0502C36.3713 16.0285 36.552 16.0213 36.6893 16.0213C38.6187 16.0213 39.9557 16.5922 40.7072 17.7268C41.177 18.4133 41.4082 19.4539 41.4082 20.8559V24.9461C40.3098 24.9895 39.2113 25.0617 38.1129 25.1557ZM41.4154 36.1328C41.4154 37.3324 41.2564 38.4236 40.9457 39.3848C40.2809 41.4877 39.0162 42.8102 37.159 43.3449C35.5402 43.8219 34.001 43.5834 32.5412 42.6367C30.9875 41.625 30.2143 40.1941 30.2143 38.3514C30.2143 36.9133 30.5756 35.6848 31.2982 34.6586C32.0209 33.6397 32.982 32.8736 34.1889 32.3678C35.3957 31.8619 36.5736 31.5006 37.7299 31.291C38.8789 31.0742 40.1146 30.9441 41.4154 30.9008V36.1328ZM65.6389 51.9518C65.3281 51.5615 64.4898 51.3086 63.1168 51.1785C61.7437 51.0485 60.5514 51.0557 59.5252 51.2074C58.4195 51.3375 57.2777 51.6555 56.107 52.1758C54.9291 52.6889 54.416 53.1225 54.5461 53.4621L54.5967 53.5561L54.6617 53.6067L54.7629 53.6211H55.0953C55.1531 53.6211 55.2254 53.6139 55.3265 53.6067C55.4277 53.5994 55.5217 53.585 55.6084 53.5778C55.6951 53.5705 55.818 53.5561 55.9769 53.5488C56.1287 53.5416 56.2732 53.5199 56.4105 53.4983C56.4322 53.4983 56.6779 53.4766 57.1549 53.4332C57.6318 53.3899 57.9787 53.361 58.1883 53.3393C58.3978 53.3176 58.7519 53.2959 59.2361 53.2742C59.7203 53.2526 60.1105 53.2526 60.3996 53.2742C60.6887 53.2959 61.0139 53.3248 61.3824 53.3537C61.751 53.3826 62.0473 53.4477 62.2785 53.5488C62.5098 53.6428 62.6832 53.7656 62.7916 53.9174C63.1674 54.3943 63.0951 55.4494 62.5748 57.0899C62.0545 58.7303 61.5631 60.0383 61.1006 61.0067C60.8982 61.4186 60.8982 61.6715 61.1006 61.7799C61.3029 61.8883 61.5848 61.7871 61.9605 61.4908C63.0879 60.6092 64.0273 59.2795 64.7861 57.4945C65.2269 56.4395 65.5449 55.341 65.7328 54.192C65.9062 53.043 65.8773 52.2986 65.6389 51.9518Z" fill="#8773EE"/>
</svg>
