<svg width="74" height="74" viewBox="0 0 74 74" fill="none" xmlns="http://www.w3.org/2000/svg">
<path d="M66.156 31.3082C66.5352 33.3401 66.7418 35.4645 66.7418 37.6814C66.7418 55.0221 55.1362 67.3523 37.6074 67.3523C33.6211 67.3536 29.6737 66.5693 25.9906 65.0444C22.3076 63.5195 18.9611 61.2838 16.1423 58.4651C13.3236 55.6463 11.0879 52.2998 9.56303 48.6168C8.03811 44.9337 7.25385 40.9863 7.25507 37C7.25385 33.0137 8.03811 29.0663 9.56303 25.3832C11.0879 21.7002 13.3236 18.3537 16.1423 15.535C18.9611 12.7162 22.3076 10.4806 25.9906 8.95563C29.6737 7.43072 33.6211 6.64646 37.6074 6.64768C45.8029 6.64768 52.651 9.66318 57.905 14.5595L49.3487 23.1158V23.0942C46.1637 20.0602 42.1214 18.5031 37.6074 18.5031C27.5927 18.5031 19.4527 26.9638 19.4527 36.9815C19.4527 46.9962 27.5927 55.4753 37.6074 55.4753C46.694 55.4753 52.8792 50.2799 54.1495 43.1451H37.6074V31.3082H66.1591H66.156Z" fill="#8773EE"/>
</svg>
