<svg width="25" height="25" viewBox="0 0 25 25" fill="none" xmlns="http://www.w3.org/2000/svg">
<path d="M12.213 9.19159C10.4927 9.19159 9.08879 10.5955 9.08879 12.3158C9.08879 14.0361 10.4927 15.44 12.213 15.44C13.9333 15.44 15.3372 14.0361 15.3372 12.3158C15.3372 10.5955 13.9333 9.19159 12.213 9.19159ZM21.5833 12.3158C21.5833 11.0221 21.595 9.74002 21.5224 8.44862C21.4497 6.94862 21.1075 5.61737 20.0107 4.5205C18.9115 3.42128 17.5825 3.08143 16.0825 3.00878C14.7888 2.93612 13.5068 2.94784 12.2154 2.94784C10.9216 2.94784 9.63957 2.93612 8.34816 3.00878C6.84816 3.08143 5.51691 3.42362 4.42003 4.5205C3.32081 5.61971 2.98097 6.94862 2.90831 8.44862C2.83566 9.74237 2.84738 11.0244 2.84738 12.3158C2.84738 13.6072 2.83566 14.8916 2.90831 16.183C2.98097 17.683 3.32316 19.0142 4.42003 20.1111C5.51925 21.2103 6.84816 21.5502 8.34816 21.6228C9.64191 21.6955 10.9239 21.6838 12.2154 21.6838C13.5091 21.6838 14.7911 21.6955 16.0825 21.6228C17.5825 21.5502 18.9138 21.208 20.0107 20.1111C21.1099 19.0119 21.4497 17.683 21.5224 16.183C21.5974 14.8916 21.5833 13.6096 21.5833 12.3158V12.3158ZM12.213 17.1228C9.55285 17.1228 7.40597 14.976 7.40597 12.3158C7.40597 9.65565 9.55285 7.50878 12.213 7.50878C14.8732 7.50878 17.02 9.65565 17.02 12.3158C17.02 14.976 14.8732 17.1228 12.213 17.1228ZM17.2169 8.43456C16.5958 8.43456 16.0943 7.93299 16.0943 7.3119C16.0943 6.69081 16.5958 6.18925 17.2169 6.18925C17.838 6.18925 18.3396 6.69081 18.3396 7.3119C18.3398 7.45938 18.3108 7.60545 18.2545 7.74174C18.1981 7.87803 18.1155 8.00187 18.0112 8.10615C17.9069 8.21044 17.7831 8.29312 17.6468 8.34948C17.5105 8.40583 17.3644 8.43474 17.2169 8.43456V8.43456Z" fill="white"/>
</svg>
