<svg width="25" height="25" viewBox="0 0 25 25" fill="none" xmlns="http://www.w3.org/2000/svg">
<g clip-path="url(#clip0_104_618)">
<path d="M6.06007 21.3158H1.70632V7.29529H6.06007V21.3158ZM3.88057 5.3828C2.48857 5.3828 1.35907 4.2293 1.35907 2.8373C1.35907 2.16855 1.62473 1.5272 2.0976 1.05433C2.57047 0.581453 3.21183 0.315796 3.88057 0.315796C4.54931 0.315796 5.19067 0.581453 5.66354 1.05433C6.13641 1.5272 6.40207 2.16855 6.40207 2.8373C6.40207 4.2293 5.27257 5.3828 3.88057 5.3828ZM22.3546 21.3158H18.0106V14.4908C18.0106 12.864 17.9776 10.7783 15.7471 10.7783C13.4836 10.7783 13.1363 12.5453 13.1363 14.3738V21.3158H8.78707V7.29529H12.9623V9.2078H13.0231C13.6043 8.10605 15.0241 6.94355 17.1421 6.94355C21.5483 6.94355 22.3583 9.84529 22.3583 13.614V21.3158H22.3546Z" fill="white"/>
</g>
<defs>
<clipPath id="clip0_104_618">
<rect width="24" height="24" fill="white" transform="translate(0.315613 0.315796)"/>
</clipPath>
</defs>
</svg>
