<svg width="56" height="56" viewBox="0 0 56 56" fill="none" xmlns="http://www.w3.org/2000/svg">
<path d="M51.3333 39.4799V46.4799C51.336 47.1298 51.2029 47.773 50.9425 48.3684C50.6822 48.9638 50.3004 49.4983 49.8215 49.9376C49.3427 50.3769 48.7773 50.7114 48.1617 50.9196C47.5462 51.1278 46.8939 51.2051 46.2467 51.1466C39.0666 50.3664 32.1697 47.9129 26.11 43.9833C20.4723 40.4008 15.6925 35.621 12.11 29.9833C8.16661 23.8961 5.71257 16.9656 4.94667 9.75327C4.88836 9.10803 4.96504 8.45772 5.17183 7.84373C5.37863 7.22975 5.711 6.66555 6.14779 6.18706C6.58458 5.70857 7.11621 5.32626 7.70884 5.06449C8.30148 4.80272 8.94213 4.66722 9.59 4.66661H16.59C17.7224 4.65546 18.8202 5.05646 19.6788 5.79485C20.5374 6.53324 21.0982 7.55865 21.2567 8.67994C21.5521 10.9201 22.1 13.1196 22.89 15.2366C23.2039 16.0718 23.2719 16.9794 23.0858 17.852C22.8997 18.7246 22.4673 19.5255 21.84 20.1599L18.8767 23.1233C22.1983 28.9649 27.0351 33.8016 32.8767 37.1233L35.84 34.1599C36.4744 33.5326 37.2754 33.1003 38.1479 32.9142C39.0205 32.7281 39.9282 32.796 40.7633 33.1099C42.8803 33.8999 45.0798 34.4478 47.32 34.7433C48.4535 34.9032 49.4886 35.4741 50.2286 36.3474C50.9685 37.2208 51.3617 38.3356 51.3333 39.4799Z" fill="#8773EE"/>
</svg>
