<svg width="25" height="25" viewBox="0 0 25 25" fill="none" xmlns="http://www.w3.org/2000/svg">
<path d="M21.8604 6.27596C21.1432 6.58534 20.3627 6.808 19.5588 6.89471C20.3934 6.39886 21.0185 5.61549 21.3166 4.69159C20.5334 5.1575 19.6754 5.48421 18.7807 5.65721C18.4067 5.25743 17.9544 4.93895 17.452 4.7216C16.9496 4.50426 16.4078 4.39272 15.8604 4.39393C13.6455 4.39393 11.8643 6.18924 11.8643 8.39237C11.8643 8.70175 11.9018 9.01112 11.9627 9.30878C8.64631 9.13534 5.6885 7.55096 3.72209 5.12518C3.36379 5.73717 3.17603 6.43399 3.17834 7.14315C3.17834 8.53065 3.88381 9.75409 4.95959 10.4736C4.32562 10.4487 3.70649 10.2744 3.15256 9.96503V10.0142C3.15256 11.9572 4.526 13.5674 6.35647 13.9377C6.01278 14.027 5.65922 14.0726 5.30412 14.0736C5.04397 14.0736 4.79787 14.0478 4.54944 14.0127C5.05569 15.5971 6.5299 16.7478 8.28537 16.7853C6.91193 17.8611 5.19162 18.4939 3.32366 18.4939C2.9885 18.4939 2.67913 18.4822 2.35803 18.4447C4.12991 19.5814 6.23225 20.2377 8.49631 20.2377C15.8463 20.2377 19.8682 14.1486 19.8682 8.86347C19.8682 8.69003 19.8682 8.51659 19.8565 8.34315C20.6346 7.77362 21.3166 7.06815 21.8604 6.27596Z" fill="white"/>
</svg>
