<svg width="100" height="101" viewBox="0 0 100 101" fill="none" xmlns="http://www.w3.org/2000/svg">
<path d="M50 8.40222C26.9875 8.40222 8.33331 27.2106 8.33331 50.4132C8.33331 73.6159 26.9875 92.4243 50 92.4243C73.0125 92.4243 91.6667 73.6159 91.6667 50.4132C91.6667 27.2106 73.0125 8.40222 50 8.40222Z" fill="white" stroke="#FF4F6F" stroke-width="7" stroke-linecap="round" stroke-linejoin="round"/>
<path d="M33.3333 88.9289V58.8154L50 29.4077L66.6666 58.8154V88.9289" fill="#FF4F6F"/>
<path d="M33.3333 88.9289V58.8154L50 29.4077L66.6666 58.8154V88.9289" stroke="#FF4F6F" stroke-width="7" stroke-linecap="round" stroke-linejoin="round"/>
<path d="M33.3333 58.8154C33.3333 58.8154 38.0291 63.0165 41.6666 63.0165C45.3041 63.0165 50 58.8154 50 58.8154C50 58.8154 54.6958 63.0165 58.3333 63.0165C61.9708 63.0165 66.6666 58.8154 66.6666 58.8154" fill="#FF4F6F"/>
<path d="M33.3333 58.8154C33.3333 58.8154 38.0291 63.0165 41.6666 63.0165C45.3041 63.0165 50 58.8154 50 58.8154C50 58.8154 54.6958 63.0165 58.3333 63.0165C61.9708 63.0165 66.6666 58.8154 66.6666 58.8154" stroke="white" stroke-width="7" stroke-linecap="round" stroke-linejoin="round"/>
</svg>
