<svg width="176" height="158" viewBox="0 0 176 158" fill="none" xmlns="http://www.w3.org/2000/svg">
<g opacity="0.2">
<ellipse cx="3.74468" cy="3.35198" rx="3.74468" ry="3.35198" fill="#FF4F6F"/>
<ellipse cx="97.3616" cy="6.70391" rx="3.74468" ry="3.35198" fill="#FF4F6F"/>
<ellipse cx="3.74468" cy="16.7598" rx="3.74468" ry="3.35198" fill="#FF4F6F"/>
<ellipse cx="97.3616" cy="20.112" rx="3.74468" ry="3.35198" fill="#FF4F6F"/>
<ellipse cx="3.74468" cy="30.168" rx="3.74468" ry="3.35198" fill="#FF4F6F"/>
<ellipse cx="97.3616" cy="33.5199" rx="3.74468" ry="3.35198" fill="#FF4F6F"/>
<ellipse cx="3.74468" cy="43.5756" rx="3.74468" ry="3.35198" fill="#FF4F6F"/>
<ellipse cx="97.3616" cy="46.9277" rx="3.74468" ry="3.35198" fill="#FF4F6F"/>
<ellipse cx="3.74468" cy="56.9836" rx="3.74468" ry="3.35198" fill="#FF4F6F"/>
<ellipse cx="97.3616" cy="60.3355" rx="3.74468" ry="3.35198" fill="#FF4F6F"/>
<ellipse cx="3.74468" cy="70.3915" rx="3.74468" ry="3.35198" fill="#FF4F6F"/>
<ellipse cx="97.3616" cy="73.7436" rx="3.74468" ry="3.35198" fill="#FF4F6F"/>
<ellipse cx="3.74468" cy="83.7995" rx="3.74468" ry="3.35198" fill="#FF4F6F"/>
<ellipse cx="97.3616" cy="87.1515" rx="3.74468" ry="3.35198" fill="#FF4F6F"/>
<ellipse cx="3.74468" cy="97.2075" rx="3.74468" ry="3.35198" fill="#FF4F6F"/>
<ellipse cx="97.3616" cy="100.559" rx="3.74468" ry="3.35198" fill="#FF4F6F"/>
<ellipse cx="3.74468" cy="110.615" rx="3.74468" ry="3.35198" fill="#FF4F6F"/>
<ellipse cx="97.3616" cy="113.967" rx="3.74468" ry="3.35198" fill="#FF4F6F"/>
<ellipse cx="3.74468" cy="124.023" rx="3.74468" ry="3.35198" fill="#FF4F6F"/>
<ellipse cx="97.3616" cy="127.375" rx="3.74468" ry="3.35198" fill="#FF4F6F"/>
<ellipse cx="3.74468" cy="137.431" rx="3.74468" ry="3.35198" fill="#FF4F6F"/>
<ellipse cx="97.3616" cy="140.783" rx="3.74468" ry="3.35198" fill="#FF4F6F"/>
<ellipse cx="3.74468" cy="150.839" rx="3.74468" ry="3.35198" fill="#FF4F6F"/>
<ellipse cx="97.3616" cy="154.191" rx="3.74468" ry="3.35198" fill="#FF4F6F"/>
<ellipse cx="22.4681" cy="3.35198" rx="3.74468" ry="3.35198" fill="#FF4F6F"/>
<ellipse cx="116.085" cy="6.70391" rx="3.74468" ry="3.35198" fill="#FF4F6F"/>
<ellipse cx="22.4681" cy="16.7598" rx="3.74468" ry="3.35198" fill="#FF4F6F"/>
<ellipse cx="116.085" cy="20.112" rx="3.74468" ry="3.35198" fill="#FF4F6F"/>
<ellipse cx="22.4681" cy="30.168" rx="3.74468" ry="3.35198" fill="#FF4F6F"/>
<ellipse cx="116.085" cy="33.5199" rx="3.74468" ry="3.35198" fill="#FF4F6F"/>
<ellipse cx="22.4681" cy="43.5756" rx="3.74468" ry="3.35198" fill="#FF4F6F"/>
<ellipse cx="116.085" cy="46.9277" rx="3.74468" ry="3.35198" fill="#FF4F6F"/>
<ellipse cx="22.4681" cy="56.9836" rx="3.74468" ry="3.35198" fill="#FF4F6F"/>
<ellipse cx="116.085" cy="60.3355" rx="3.74468" ry="3.35198" fill="#FF4F6F"/>
<ellipse cx="22.4681" cy="70.3915" rx="3.74468" ry="3.35198" fill="#FF4F6F"/>
<ellipse cx="116.085" cy="73.7436" rx="3.74468" ry="3.35198" fill="#FF4F6F"/>
<ellipse cx="22.4681" cy="83.7995" rx="3.74468" ry="3.35198" fill="#FF4F6F"/>
<ellipse cx="116.085" cy="87.1515" rx="3.74468" ry="3.35198" fill="#FF4F6F"/>
<ellipse cx="22.4681" cy="97.2075" rx="3.74468" ry="3.35198" fill="#FF4F6F"/>
<ellipse cx="116.085" cy="100.559" rx="3.74468" ry="3.35198" fill="#FF4F6F"/>
<ellipse cx="22.4681" cy="110.615" rx="3.74468" ry="3.35198" fill="#FF4F6F"/>
<ellipse cx="116.085" cy="113.967" rx="3.74468" ry="3.35198" fill="#FF4F6F"/>
<ellipse cx="22.4681" cy="124.023" rx="3.74468" ry="3.35198" fill="#FF4F6F"/>
<ellipse cx="116.085" cy="127.375" rx="3.74468" ry="3.35198" fill="#FF4F6F"/>
<ellipse cx="22.4681" cy="137.431" rx="3.74468" ry="3.35198" fill="#FF4F6F"/>
<ellipse cx="116.085" cy="140.783" rx="3.74468" ry="3.35198" fill="#FF4F6F"/>
<ellipse cx="22.4681" cy="150.839" rx="3.74468" ry="3.35198" fill="#FF4F6F"/>
<ellipse cx="116.085" cy="154.191" rx="3.74468" ry="3.35198" fill="#FF4F6F"/>
<ellipse cx="41.1917" cy="3.35198" rx="3.74468" ry="3.35198" fill="#FF4F6F"/>
<ellipse cx="134.808" cy="6.70391" rx="3.74468" ry="3.35198" fill="#FF4F6F"/>
<ellipse cx="41.1917" cy="16.7598" rx="3.74468" ry="3.35198" fill="#FF4F6F"/>
<ellipse cx="134.808" cy="20.112" rx="3.74468" ry="3.35198" fill="#FF4F6F"/>
<ellipse cx="41.1917" cy="30.168" rx="3.74468" ry="3.35198" fill="#FF4F6F"/>
<ellipse cx="134.808" cy="33.5199" rx="3.74468" ry="3.35198" fill="#FF4F6F"/>
<ellipse cx="41.1917" cy="43.5756" rx="3.74468" ry="3.35198" fill="#FF4F6F"/>
<ellipse cx="134.808" cy="46.9277" rx="3.74468" ry="3.35198" fill="#FF4F6F"/>
<ellipse cx="41.1917" cy="56.9836" rx="3.74468" ry="3.35198" fill="#FF4F6F"/>
<ellipse cx="134.808" cy="60.3355" rx="3.74468" ry="3.35198" fill="#FF4F6F"/>
<ellipse cx="41.1917" cy="70.3915" rx="3.74468" ry="3.35198" fill="#FF4F6F"/>
<ellipse cx="134.808" cy="73.7436" rx="3.74468" ry="3.35198" fill="#FF4F6F"/>
<ellipse cx="41.1917" cy="83.7995" rx="3.74468" ry="3.35198" fill="#FF4F6F"/>
<ellipse cx="134.808" cy="87.1515" rx="3.74468" ry="3.35198" fill="#FF4F6F"/>
<ellipse cx="41.1917" cy="97.2075" rx="3.74468" ry="3.35198" fill="#FF4F6F"/>
<ellipse cx="134.808" cy="100.559" rx="3.74468" ry="3.35198" fill="#FF4F6F"/>
<ellipse cx="41.1917" cy="110.615" rx="3.74468" ry="3.35198" fill="#FF4F6F"/>
<ellipse cx="134.808" cy="113.967" rx="3.74468" ry="3.35198" fill="#FF4F6F"/>
<ellipse cx="41.1917" cy="124.023" rx="3.74468" ry="3.35198" fill="#FF4F6F"/>
<ellipse cx="134.808" cy="127.375" rx="3.74468" ry="3.35198" fill="#FF4F6F"/>
<ellipse cx="41.1917" cy="137.431" rx="3.74468" ry="3.35198" fill="#FF4F6F"/>
<ellipse cx="134.808" cy="140.783" rx="3.74468" ry="3.35198" fill="#FF4F6F"/>
<ellipse cx="41.1917" cy="150.839" rx="3.74468" ry="3.35198" fill="#FF4F6F"/>
<ellipse cx="134.808" cy="154.191" rx="3.74468" ry="3.35198" fill="#FF4F6F"/>
<ellipse cx="59.9148" cy="3.35198" rx="3.74468" ry="3.35198" fill="#FF4F6F"/>
<ellipse cx="153.532" cy="6.70391" rx="3.74468" ry="3.35198" fill="#FF4F6F"/>
<ellipse cx="59.9148" cy="16.7598" rx="3.74468" ry="3.35198" fill="#FF4F6F"/>
<ellipse cx="153.532" cy="20.112" rx="3.74468" ry="3.35198" fill="#FF4F6F"/>
<ellipse cx="59.9148" cy="30.168" rx="3.74468" ry="3.35198" fill="#FF4F6F"/>
<ellipse cx="153.532" cy="33.5199" rx="3.74468" ry="3.35198" fill="#FF4F6F"/>
<ellipse cx="59.9148" cy="43.5756" rx="3.74468" ry="3.35198" fill="#FF4F6F"/>
<ellipse cx="153.532" cy="46.9277" rx="3.74468" ry="3.35198" fill="#FF4F6F"/>
<ellipse cx="59.9148" cy="56.9836" rx="3.74468" ry="3.35198" fill="#FF4F6F"/>
<ellipse cx="153.532" cy="60.3355" rx="3.74468" ry="3.35198" fill="#FF4F6F"/>
<ellipse cx="59.9148" cy="70.3915" rx="3.74468" ry="3.35198" fill="#FF4F6F"/>
<ellipse cx="153.532" cy="73.7436" rx="3.74468" ry="3.35198" fill="#FF4F6F"/>
<ellipse cx="59.9148" cy="83.7995" rx="3.74468" ry="3.35198" fill="#FF4F6F"/>
<ellipse cx="153.532" cy="87.1515" rx="3.74468" ry="3.35198" fill="#FF4F6F"/>
<ellipse cx="59.9148" cy="97.2075" rx="3.74468" ry="3.35198" fill="#FF4F6F"/>
<ellipse cx="153.532" cy="100.559" rx="3.74468" ry="3.35198" fill="#FF4F6F"/>
<ellipse cx="59.9148" cy="110.615" rx="3.74468" ry="3.35198" fill="#FF4F6F"/>
<ellipse cx="153.532" cy="113.967" rx="3.74468" ry="3.35198" fill="#FF4F6F"/>
<ellipse cx="59.9148" cy="124.023" rx="3.74468" ry="3.35198" fill="#FF4F6F"/>
<ellipse cx="153.532" cy="127.375" rx="3.74468" ry="3.35198" fill="#FF4F6F"/>
<ellipse cx="59.9148" cy="137.431" rx="3.74468" ry="3.35198" fill="#FF4F6F"/>
<ellipse cx="153.532" cy="140.783" rx="3.74468" ry="3.35198" fill="#FF4F6F"/>
<ellipse cx="59.9148" cy="150.839" rx="3.74468" ry="3.35198" fill="#FF4F6F"/>
<ellipse cx="153.532" cy="154.191" rx="3.74468" ry="3.35198" fill="#FF4F6F"/>
<ellipse cx="78.6382" cy="3.35198" rx="3.74468" ry="3.35198" fill="#FF4F6F"/>
<ellipse cx="172.255" cy="6.70391" rx="3.74468" ry="3.35198" fill="#FF4F6F"/>
<ellipse cx="78.6382" cy="16.7598" rx="3.74468" ry="3.35198" fill="#FF4F6F"/>
<ellipse cx="172.255" cy="20.112" rx="3.74468" ry="3.35198" fill="#FF4F6F"/>
<ellipse cx="78.6382" cy="30.168" rx="3.74468" ry="3.35198" fill="#FF4F6F"/>
<ellipse cx="172.255" cy="33.5199" rx="3.74468" ry="3.35198" fill="#FF4F6F"/>
<ellipse cx="78.6382" cy="43.5756" rx="3.74468" ry="3.35198" fill="#FF4F6F"/>
<ellipse cx="172.255" cy="46.9277" rx="3.74468" ry="3.35198" fill="#FF4F6F"/>
<ellipse cx="78.6382" cy="56.9836" rx="3.74468" ry="3.35198" fill="#FF4F6F"/>
<ellipse cx="172.255" cy="60.3355" rx="3.74468" ry="3.35198" fill="#FF4F6F"/>
<ellipse cx="78.6382" cy="70.3915" rx="3.74468" ry="3.35198" fill="#FF4F6F"/>
<ellipse cx="172.255" cy="73.7436" rx="3.74468" ry="3.35198" fill="#FF4F6F"/>
<ellipse cx="78.6382" cy="83.7995" rx="3.74468" ry="3.35198" fill="#FF4F6F"/>
<ellipse cx="172.255" cy="87.1515" rx="3.74468" ry="3.35198" fill="#FF4F6F"/>
<ellipse cx="78.6382" cy="97.2075" rx="3.74468" ry="3.35198" fill="#FF4F6F"/>
<ellipse cx="172.255" cy="100.559" rx="3.74468" ry="3.35198" fill="#FF4F6F"/>
<ellipse cx="78.6382" cy="110.615" rx="3.74468" ry="3.35198" fill="#FF4F6F"/>
<ellipse cx="172.255" cy="113.967" rx="3.74468" ry="3.35198" fill="#FF4F6F"/>
<ellipse cx="78.6382" cy="124.023" rx="3.74468" ry="3.35198" fill="#FF4F6F"/>
<ellipse cx="172.255" cy="127.375" rx="3.74468" ry="3.35198" fill="#FF4F6F"/>
<ellipse cx="78.6382" cy="137.431" rx="3.74468" ry="3.35198" fill="#FF4F6F"/>
<ellipse cx="172.255" cy="140.783" rx="3.74468" ry="3.35198" fill="#FF4F6F"/>
<ellipse cx="78.6382" cy="150.839" rx="3.74468" ry="3.35198" fill="#FF4F6F"/>
<ellipse cx="172.255" cy="154.191" rx="3.74468" ry="3.35198" fill="#FF4F6F"/>
</g>
</svg>
