<svg width="413" height="370" viewBox="0 0 413 370" fill="none" xmlns="http://www.w3.org/2000/svg">
<g opacity="0.2">
<ellipse cx="8.78723" cy="7.86573" rx="8.78723" ry="7.86573" fill="#FF4F6F"/>
<ellipse cx="228.468" cy="15.7314" rx="8.78723" ry="7.86573" fill="#FF4F6F"/>
<ellipse cx="8.78723" cy="39.3287" rx="8.78723" ry="7.86573" fill="#FF4F6F"/>
<ellipse cx="228.468" cy="47.1946" rx="8.78723" ry="7.86573" fill="#FF4F6F"/>
<ellipse cx="8.78723" cy="70.7917" rx="8.78723" ry="7.86573" fill="#FF4F6F"/>
<ellipse cx="228.468" cy="78.6575" rx="8.78723" ry="7.86573" fill="#FF4F6F"/>
<ellipse cx="8.78723" cy="102.254" rx="8.78723" ry="7.86573" fill="#FF4F6F"/>
<ellipse cx="228.468" cy="110.12" rx="8.78723" ry="7.86573" fill="#FF4F6F"/>
<ellipse cx="8.78723" cy="133.717" rx="8.78723" ry="7.86573" fill="#FF4F6F"/>
<ellipse cx="228.468" cy="141.583" rx="8.78723" ry="7.86573" fill="#FF4F6F"/>
<ellipse cx="8.78723" cy="165.18" rx="8.78723" ry="7.86573" fill="#FF4F6F"/>
<ellipse cx="228.468" cy="173.046" rx="8.78723" ry="7.86573" fill="#FF4F6F"/>
<ellipse cx="8.78723" cy="196.643" rx="8.78723" ry="7.86573" fill="#FF4F6F"/>
<ellipse cx="228.468" cy="204.509" rx="8.78723" ry="7.86573" fill="#FF4F6F"/>
<ellipse cx="8.78723" cy="228.106" rx="8.78723" ry="7.86573" fill="#FF4F6F"/>
<ellipse cx="228.468" cy="235.972" rx="8.78723" ry="7.86573" fill="#FF4F6F"/>
<ellipse cx="8.78723" cy="259.569" rx="8.78723" ry="7.86573" fill="#FF4F6F"/>
<ellipse cx="228.468" cy="267.435" rx="8.78723" ry="7.86573" fill="#FF4F6F"/>
<ellipse cx="8.78723" cy="291.031" rx="8.78723" ry="7.86573" fill="#FF4F6F"/>
<ellipse cx="228.468" cy="298.897" rx="8.78723" ry="7.86573" fill="#FF4F6F"/>
<ellipse cx="8.78723" cy="322.495" rx="8.78723" ry="7.86573" fill="#FF4F6F"/>
<ellipse cx="228.468" cy="330.36" rx="8.78723" ry="7.86573" fill="#FF4F6F"/>
<ellipse cx="8.78723" cy="353.958" rx="8.78723" ry="7.86573" fill="#FF4F6F"/>
<ellipse cx="228.468" cy="361.823" rx="8.78723" ry="7.86573" fill="#FF4F6F"/>
<ellipse cx="52.7235" cy="7.86573" rx="8.78723" ry="7.86573" fill="#FF4F6F"/>
<ellipse cx="272.405" cy="15.7314" rx="8.78723" ry="7.86573" fill="#FF4F6F"/>
<ellipse cx="52.7235" cy="39.3287" rx="8.78723" ry="7.86573" fill="#FF4F6F"/>
<ellipse cx="272.405" cy="47.1945" rx="8.78723" ry="7.86573" fill="#FF4F6F"/>
<ellipse cx="52.7235" cy="70.7917" rx="8.78723" ry="7.86573" fill="#FF4F6F"/>
<ellipse cx="272.405" cy="78.6575" rx="8.78723" ry="7.86573" fill="#FF4F6F"/>
<ellipse cx="52.7235" cy="102.254" rx="8.78723" ry="7.86573" fill="#FF4F6F"/>
<ellipse cx="272.405" cy="110.12" rx="8.78723" ry="7.86573" fill="#FF4F6F"/>
<ellipse cx="52.7235" cy="133.717" rx="8.78723" ry="7.86573" fill="#FF4F6F"/>
<ellipse cx="272.405" cy="141.583" rx="8.78723" ry="7.86573" fill="#FF4F6F"/>
<ellipse cx="52.7235" cy="165.18" rx="8.78723" ry="7.86573" fill="#FF4F6F"/>
<ellipse cx="272.405" cy="173.046" rx="8.78723" ry="7.86573" fill="#FF4F6F"/>
<ellipse cx="52.7235" cy="196.643" rx="8.78723" ry="7.86573" fill="#FF4F6F"/>
<ellipse cx="272.405" cy="204.509" rx="8.78723" ry="7.86573" fill="#FF4F6F"/>
<ellipse cx="52.7235" cy="228.106" rx="8.78723" ry="7.86573" fill="#FF4F6F"/>
<ellipse cx="272.405" cy="235.972" rx="8.78723" ry="7.86573" fill="#FF4F6F"/>
<ellipse cx="52.7235" cy="259.569" rx="8.78723" ry="7.86573" fill="#FF4F6F"/>
<ellipse cx="272.405" cy="267.435" rx="8.78723" ry="7.86573" fill="#FF4F6F"/>
<ellipse cx="52.7235" cy="291.031" rx="8.78723" ry="7.86573" fill="#FF4F6F"/>
<ellipse cx="272.405" cy="298.897" rx="8.78723" ry="7.86573" fill="#FF4F6F"/>
<ellipse cx="52.7235" cy="322.495" rx="8.78723" ry="7.86573" fill="#FF4F6F"/>
<ellipse cx="272.405" cy="330.36" rx="8.78723" ry="7.86573" fill="#FF4F6F"/>
<ellipse cx="52.7235" cy="353.958" rx="8.78723" ry="7.86573" fill="#FF4F6F"/>
<ellipse cx="272.405" cy="361.823" rx="8.78723" ry="7.86573" fill="#FF4F6F"/>
<ellipse cx="96.6598" cy="7.86573" rx="8.78723" ry="7.86573" fill="#FF4F6F"/>
<ellipse cx="316.34" cy="15.7314" rx="8.78723" ry="7.86573" fill="#FF4F6F"/>
<ellipse cx="96.6598" cy="39.3287" rx="8.78723" ry="7.86573" fill="#FF4F6F"/>
<ellipse cx="316.34" cy="47.1945" rx="8.78723" ry="7.86573" fill="#FF4F6F"/>
<ellipse cx="96.6598" cy="70.7917" rx="8.78723" ry="7.86573" fill="#FF4F6F"/>
<ellipse cx="316.34" cy="78.6575" rx="8.78723" ry="7.86573" fill="#FF4F6F"/>
<ellipse cx="96.6598" cy="102.254" rx="8.78723" ry="7.86573" fill="#FF4F6F"/>
<ellipse cx="316.34" cy="110.12" rx="8.78723" ry="7.86573" fill="#FF4F6F"/>
<ellipse cx="96.6598" cy="133.717" rx="8.78723" ry="7.86573" fill="#FF4F6F"/>
<ellipse cx="316.34" cy="141.583" rx="8.78723" ry="7.86573" fill="#FF4F6F"/>
<ellipse cx="96.6598" cy="165.18" rx="8.78723" ry="7.86573" fill="#FF4F6F"/>
<ellipse cx="316.34" cy="173.046" rx="8.78723" ry="7.86573" fill="#FF4F6F"/>
<ellipse cx="96.6598" cy="196.643" rx="8.78723" ry="7.86573" fill="#FF4F6F"/>
<ellipse cx="316.34" cy="204.509" rx="8.78723" ry="7.86573" fill="#FF4F6F"/>
<ellipse cx="96.6598" cy="228.106" rx="8.78723" ry="7.86573" fill="#FF4F6F"/>
<ellipse cx="316.34" cy="235.972" rx="8.78723" ry="7.86573" fill="#FF4F6F"/>
<ellipse cx="96.6598" cy="259.569" rx="8.78723" ry="7.86573" fill="#FF4F6F"/>
<ellipse cx="316.34" cy="267.435" rx="8.78723" ry="7.86573" fill="#FF4F6F"/>
<ellipse cx="96.6598" cy="291.031" rx="8.78723" ry="7.86573" fill="#FF4F6F"/>
<ellipse cx="316.34" cy="298.897" rx="8.78723" ry="7.86573" fill="#FF4F6F"/>
<ellipse cx="96.6598" cy="322.495" rx="8.78723" ry="7.86573" fill="#FF4F6F"/>
<ellipse cx="316.34" cy="330.36" rx="8.78723" ry="7.86573" fill="#FF4F6F"/>
<ellipse cx="96.6598" cy="353.958" rx="8.78723" ry="7.86573" fill="#FF4F6F"/>
<ellipse cx="316.34" cy="361.823" rx="8.78723" ry="7.86573" fill="#FF4F6F"/>
<ellipse cx="140.596" cy="7.86573" rx="8.78723" ry="7.86573" fill="#FF4F6F"/>
<ellipse cx="360.276" cy="15.7314" rx="8.78723" ry="7.86573" fill="#FF4F6F"/>
<ellipse cx="140.596" cy="39.3287" rx="8.78723" ry="7.86573" fill="#FF4F6F"/>
<ellipse cx="360.276" cy="47.1946" rx="8.78723" ry="7.86573" fill="#FF4F6F"/>
<ellipse cx="140.596" cy="70.7917" rx="8.78723" ry="7.86573" fill="#FF4F6F"/>
<ellipse cx="360.276" cy="78.6575" rx="8.78723" ry="7.86573" fill="#FF4F6F"/>
<ellipse cx="140.596" cy="102.254" rx="8.78723" ry="7.86573" fill="#FF4F6F"/>
<ellipse cx="360.276" cy="110.12" rx="8.78723" ry="7.86573" fill="#FF4F6F"/>
<ellipse cx="140.596" cy="133.717" rx="8.78723" ry="7.86573" fill="#FF4F6F"/>
<ellipse cx="360.276" cy="141.583" rx="8.78723" ry="7.86573" fill="#FF4F6F"/>
<ellipse cx="140.596" cy="165.18" rx="8.78723" ry="7.86573" fill="#FF4F6F"/>
<ellipse cx="360.276" cy="173.046" rx="8.78723" ry="7.86573" fill="#FF4F6F"/>
<ellipse cx="140.596" cy="196.643" rx="8.78723" ry="7.86573" fill="#FF4F6F"/>
<ellipse cx="360.276" cy="204.509" rx="8.78723" ry="7.86573" fill="#FF4F6F"/>
<ellipse cx="140.596" cy="228.106" rx="8.78723" ry="7.86573" fill="#FF4F6F"/>
<ellipse cx="360.276" cy="235.972" rx="8.78723" ry="7.86573" fill="#FF4F6F"/>
<ellipse cx="140.596" cy="259.569" rx="8.78723" ry="7.86573" fill="#FF4F6F"/>
<ellipse cx="360.276" cy="267.435" rx="8.78723" ry="7.86573" fill="#FF4F6F"/>
<ellipse cx="140.596" cy="291.031" rx="8.78723" ry="7.86573" fill="#FF4F6F"/>
<ellipse cx="360.276" cy="298.897" rx="8.78723" ry="7.86573" fill="#FF4F6F"/>
<ellipse cx="140.596" cy="322.495" rx="8.78723" ry="7.86573" fill="#FF4F6F"/>
<ellipse cx="360.276" cy="330.36" rx="8.78723" ry="7.86573" fill="#FF4F6F"/>
<ellipse cx="140.596" cy="353.958" rx="8.78723" ry="7.86573" fill="#FF4F6F"/>
<ellipse cx="360.276" cy="361.823" rx="8.78723" ry="7.86573" fill="#FF4F6F"/>
<ellipse cx="184.532" cy="7.86573" rx="8.78723" ry="7.86573" fill="#FF4F6F"/>
<ellipse cx="404.213" cy="15.7314" rx="8.78723" ry="7.86573" fill="#FF4F6F"/>
<ellipse cx="184.532" cy="39.3287" rx="8.78723" ry="7.86573" fill="#FF4F6F"/>
<ellipse cx="404.213" cy="47.1945" rx="8.78723" ry="7.86573" fill="#FF4F6F"/>
<ellipse cx="184.532" cy="70.7917" rx="8.78723" ry="7.86573" fill="#FF4F6F"/>
<ellipse cx="404.213" cy="78.6575" rx="8.78723" ry="7.86573" fill="#FF4F6F"/>
<ellipse cx="184.532" cy="102.254" rx="8.78723" ry="7.86573" fill="#FF4F6F"/>
<ellipse cx="404.213" cy="110.12" rx="8.78723" ry="7.86573" fill="#FF4F6F"/>
<ellipse cx="184.532" cy="133.717" rx="8.78723" ry="7.86573" fill="#FF4F6F"/>
<ellipse cx="404.213" cy="141.583" rx="8.78723" ry="7.86573" fill="#FF4F6F"/>
<ellipse cx="184.532" cy="165.18" rx="8.78723" ry="7.86573" fill="#FF4F6F"/>
<ellipse cx="404.213" cy="173.046" rx="8.78723" ry="7.86573" fill="#FF4F6F"/>
<ellipse cx="184.532" cy="196.643" rx="8.78723" ry="7.86573" fill="#FF4F6F"/>
<ellipse cx="404.213" cy="204.509" rx="8.78723" ry="7.86573" fill="#FF4F6F"/>
<ellipse cx="184.532" cy="228.106" rx="8.78723" ry="7.86573" fill="#FF4F6F"/>
<ellipse cx="404.213" cy="235.972" rx="8.78723" ry="7.86573" fill="#FF4F6F"/>
<ellipse cx="184.532" cy="259.569" rx="8.78723" ry="7.86573" fill="#FF4F6F"/>
<ellipse cx="404.213" cy="267.435" rx="8.78723" ry="7.86573" fill="#FF4F6F"/>
<ellipse cx="184.532" cy="291.031" rx="8.78723" ry="7.86573" fill="#FF4F6F"/>
<ellipse cx="404.213" cy="298.897" rx="8.78723" ry="7.86573" fill="#FF4F6F"/>
<ellipse cx="184.532" cy="322.495" rx="8.78723" ry="7.86573" fill="#FF4F6F"/>
<ellipse cx="404.213" cy="330.36" rx="8.78723" ry="7.86573" fill="#FF4F6F"/>
<ellipse cx="184.532" cy="353.958" rx="8.78723" ry="7.86573" fill="#FF4F6F"/>
<ellipse cx="404.213" cy="361.823" rx="8.78723" ry="7.86573" fill="#FF4F6F"/>
</g>
</svg>
