<svg xmlns="http://www.w3.org/2000/svg" width="54" height="54" fill="none" viewBox="0 0 54 54">
  <path fill="#fff" d="M33.117 3.837c-1.96-.323-4.83-.472-6.778-.462a32.81 32.81 0 0 0-5.449.462c-4.824.844-5.703 2.605-5.703 5.858V13.5H27v1.687H11.35c-4.383 0-7.94 5.24-7.975 11.72V27a17.18 17.18 0 0 0 .33 3.375c.98 4.881 4.032 8.437 7.646 8.437H13.5v-5.695c0-3.301 2.198-6.323 5.8-6.971l1.042-.13h12.775a5.915 5.915 0 0 0 1.589-.211 5.535 5.535 0 0 0 4.106-5.378V9.695c0-3.05-2.602-5.35-5.695-5.858Zm-12.558 7.29A2.148 2.148 0 1 1 22.7 8.986a2.142 2.142 0 0 1-2.141 2.14Z"/>
  <path fill="#fff" d="M50.127 22.887c-1.128-4.494-4.05-7.7-7.477-7.7h-1.868v5.005c0 4.173-2.743 7.195-6.09 7.713-.338.052-.68.079-1.022.079H20.89a6.35 6.35 0 0 0-1.606.206c-2.353.618-4.098 2.575-4.098 5.114v10.733c0 3.059 3.074 4.852 6.09 5.728 3.607 1.05 7.538 1.24 11.856 0 2.868-.82 5.68-2.476 5.68-5.728V40.5H27v-1.688h15.65c3.105 0 5.795-2.629 7.113-6.466A16.54 16.54 0 0 0 50.625 27a16.941 16.941 0 0 0-.498-4.113ZM33.382 42.609a2.148 2.148 0 1 1-2.141 2.141 2.14 2.14 0 0 1 2.14-2.14Z"/>
</svg>
