<svg xmlns="http://www.w3.org/2000/svg" width="55" height="55" fill="none" viewBox="0 0 55 55">
  <g clip-path="url(#a)">
    <path fill="#fff" d="M48.984 0H6.016A6.016 6.016 0 0 0 0 6.016v42.968A6.016 6.016 0 0 0 6.016 55h42.968A6.016 6.016 0 0 0 55 48.984V6.016A6.016 6.016 0 0 0 48.984 0Z"/>
    <path fill="#000" d="M40.042 20.238v14.228c0 4.903-.359 7.254-1.435 9.287-.997 1.953-2.312 3.188-5.022 4.544l-5.7-2.71c2.71-1.276 4.026-2.392 4.863-4.106.877-1.754 1.156-3.786 1.156-9.127V20.238h6.138Zm-9.765-9.479v28.41c-3.148.599-5.46.838-7.97.838-7.494 0-11.4-3.388-11.4-9.885 0-6.257 4.145-10.322 10.562-10.322.996 0 1.754.08 2.67.318V10.76h6.139v-.001Zm-8.21 13.982c-3.109 0-4.902 1.914-4.902 5.261 0 3.269 1.714 5.062 4.862 5.062.677 0 1.236-.04 2.113-.159V25.06c-.718-.239-1.316-.319-2.073-.319Zm17.975-13.95v6.298h-6.138v-6.297h6.138Z"/>
  </g>
  <defs>
    <clipPath id="a">
      <path fill="#fff" d="M0 0h55v55H0z"/>
    </clipPath>
  </defs>
</svg>
