<svg xmlns="http://www.w3.org/2000/svg" width="73" height="73" fill="none" viewBox="0 0 73 73">
  <path fill="#fff" d="M9.125 9.125h54.75v54.75H9.125V9.125Zm14.387 45.747c1.217 2.585 3.62 4.714 7.726 4.714 4.562 0 7.695-2.433 7.695-7.756V34.25h-5.17v17.458c0 2.616-1.065 3.285-2.738 3.285-1.764 0-2.494-1.216-3.315-2.646l-4.198 2.525m18.19-.548c1.52 2.981 4.592 5.262 9.398 5.262 4.867 0 8.517-2.524 8.517-7.178 0-4.289-2.464-6.205-6.844-8.09l-1.278-.548c-2.22-.943-3.163-1.582-3.163-3.103 0-1.247.943-2.22 2.464-2.22 1.46 0 2.433.638 3.315 2.22l3.985-2.646c-1.673-2.92-4.046-4.046-7.3-4.046-4.593 0-7.544 2.92-7.544 6.783 0 4.198 2.464 6.175 6.175 7.757l1.278.547c2.372 1.034 3.771 1.673 3.771 3.437 0 1.46-1.368 2.525-3.498 2.525-2.524 0-3.984-1.308-5.08-3.133l-4.197 2.433Z"/>
</svg>
