<svg xmlns="http://www.w3.org/2000/svg" width="56" height="57" fill="none" viewBox="0 0 56 57">
  <g clip-path="url(#a)">
    <path fill="#fff" d="M17.519 0c-.67 0-1.337 0-2.007.005-.562.004-1.127.007-1.69.024-.307.007-.613.02-.921.035a21.08 21.08 0 0 0-2.756.292A12.66 12.66 0 0 0 6.65 1.532a11.867 11.867 0 0 0-5.145 5.232C.933 7.904.572 9.072.35 10.326.133 11.563.065 12.82.033 14.07a85.102 85.102 0 0 0-.028 1.72C0 16.471 0 17.149 0 17.831V39.17c0 .681 0 1.365.005 2.047.004.57.011 1.142.028 1.715.032 1.249.1 2.51.317 3.742.222 1.255.583 2.423 1.155 3.563a11.843 11.843 0 0 0 5.145 5.232c1.12.58 2.263.95 3.495 1.176 1.214.22 2.45.294 3.678.328.562.016 1.127.02 1.689.023.67.005 1.337.005 2.007.005H38.48c.67 0 1.337 0 2.007-.005a66.543 66.543 0 0 0 1.69-.023 24.136 24.136 0 0 0 3.681-.328 12.268 12.268 0 0 0 3.496-1.176 11.855 11.855 0 0 0 5.14-5.232c.572-1.14.933-2.308 1.155-3.563.217-1.235.29-2.493.322-3.742.016-.573.021-1.143.023-1.715.005-.682.005-1.366.005-2.047V17.832c0-.682 0-1.361-.005-2.043a81.467 81.467 0 0 0-.023-1.72 25.365 25.365 0 0 0-.322-3.743 12.812 12.812 0 0 0-1.155-3.562 11.865 11.865 0 0 0-5.14-5.232A12.263 12.263 0 0 0 45.859.356 24.064 24.064 0 0 0 42.177.03a80.179 80.179 0 0 0-1.684-.024C39.823 0 39.15 0 38.48 0H17.52ZM31.6 8.099c9.6 5.866 15.272 17.01 12.948 26.436-.056.22-.117.43-.177.646l.004.002c4.812 6.028 3.5 12.488 2.884 11.27-2.501-4.955-7.154-3.724-9.538-2.478-.216.13-.435.256-.656.376l-.047.028-.004.005c-4.935 2.667-11.567 2.862-18.228-.052-5.425-2.393-10.012-6.398-13.16-11.49a28.635 28.635 0 0 0 4.893 2.973c7.044 3.358 14.119 3.114 19.126-.005-7.126-5.576-13.076-12.844-17.638-18.731a25.235 25.235 0 0 1-2.345-3.287c5.46 5.087 14.089 11.47 17.185 13.243-6.57-7.066-12.362-15.77-12.091-15.492 10.35 10.616 19.899 16.615 19.899 16.615.359.202.63.366.84.506.198-.51.373-1.038.522-1.587 1.652-6.146-.21-13.176-4.417-18.98v.002Z"/>
  </g>
  <defs>
    <clipPath id="a">
      <path fill="#fff" d="M0 0h56v57H0z"/>
    </clipPath>
  </defs>
</svg>
