<svg width="40" height="42" viewBox="0 0 40 42" fill="none" xmlns="http://www.w3.org/2000/svg">
<path d="M35.0161 13.935L35.0163 13.9388C35.1218 15.8631 35.1198 17.7752 35.1177 19.7156C35.1174 19.9853 35.1172 20.2555 35.1172 20.5263C35.1172 20.8297 35.1176 21.1321 35.118 21.4339C35.1208 23.3416 35.1234 25.2212 35.0164 27.113L35.0161 27.1177C34.8979 29.6236 34.3494 31.755 32.6379 33.5115C30.9326 35.2617 28.8586 35.8258 26.4244 35.9468L26.4204 35.9471C24.5465 36.0553 22.6846 36.0532 20.7938 36.0511C20.5311 36.0508 20.2678 36.0505 20.0039 36.0505C19.7404 36.0505 19.4776 36.0508 19.2153 36.0511C17.3271 36.0532 15.4647 36.0553 13.5873 35.9471L13.5834 35.9469C11.1489 35.8258 9.07895 35.2656 7.36978 33.5115C5.6621 31.7589 5.10983 29.6234 4.99159 27.1177L4.99138 27.1139C4.88588 25.1894 4.88792 23.2741 4.88999 21.3356C4.89028 21.0663 4.89057 20.7966 4.89057 20.5263C4.89057 20.256 4.89028 19.9863 4.88999 19.7171C4.88792 17.7793 4.88588 15.8667 4.99138 13.9387L4.9914 13.9387L4.99157 13.935C5.10984 11.429 5.65829 9.29769 7.36978 7.54117C9.07514 5.79093 11.1491 5.2268 13.5834 5.10579L13.5834 5.1058L13.5874 5.10557C15.4612 4.99737 17.3231 4.99946 19.2139 5.00158C19.4766 5.00187 19.7399 5.00217 20.0039 5.00217C20.2673 5.00217 20.5301 5.00187 20.7924 5.00158C22.6806 4.99946 24.543 4.99737 26.4204 5.10558L26.4204 5.10559L26.4244 5.10579C28.8588 5.22681 30.9288 5.78702 32.6379 7.54117C34.3456 9.29378 34.8979 11.4292 35.0161 13.935ZM25.9687 11.967C25.9687 13.293 27.016 14.387 28.3392 14.3873L30.2109 11.967H30.7109C30.7109 11.9668 30.7109 11.9666 30.7109 11.9664C30.7106 10.6405 29.6631 9.54668 28.3398 9.54668C27.0163 9.54668 25.9687 10.6408 25.9687 11.967ZM15.2929 20.5263C15.2929 17.8475 17.4211 15.6823 20 15.6823C22.5788 15.6823 24.707 17.8475 24.707 20.5263C24.707 23.2051 22.5788 25.3704 20 25.3704C17.4211 25.3704 15.2929 23.2051 15.2929 20.5263ZM11.4882 20.5263C11.4882 25.3404 15.278 29.2489 20 29.2489C24.7219 29.2489 28.5117 25.3404 28.5117 20.5263C28.5117 15.7122 24.7219 11.8038 20 11.8038C15.278 11.8038 11.4882 15.7122 11.4882 20.5263Z" stroke="white"/>
</svg>
