<svg width="40" height="40" viewBox="0 0 40 40" fill="none" xmlns="http://www.w3.org/2000/svg">
<g clip-path="url(#clip0_105_311)">
<path d="M36.2379 22.1637V34.5H29.9916V23.625C29.9916 22.2912 29.9843 20.6433 29.4643 19.3304C29.1986 18.6596 28.7905 18.0507 28.163 17.6129C27.5344 17.1745 26.7283 16.9375 25.7191 16.9375C24.711 16.9375 23.88 17.1345 23.2056 17.5078C22.5283 17.8828 22.0386 18.4192 21.691 19.0494C21.0087 20.2863 20.8679 21.897 20.8679 23.43V34.5H14.6191V12.1325H20.5779V14.82V15.32H21.0779H21.1791H21.4807L21.6214 15.0533C22.5078 13.3732 24.7084 11.5462 28.0441 11.5462C31.5927 11.5462 33.581 12.7039 34.7218 14.5159C35.896 16.381 36.2379 19.0339 36.2379 22.1637ZM9.07414 34.5H2.81789V12.1325H9.07414V34.5ZM5.94164 7.945C3.90392 7.945 2.23914 6.25253 2.23914 4.2025C2.23914 3.22054 2.62922 2.27879 3.32357 1.58444C4.01793 0.890084 4.95967 0.5 5.94164 0.5C6.9236 0.5 7.86535 0.890084 8.5597 1.58444C9.25405 2.27879 9.64414 3.22054 9.64414 4.2025C9.64414 6.25253 7.97936 7.945 5.94164 7.945Z" stroke="white"/>
</g>
<defs>
<clipPath id="clip0_105_311">
<rect width="40" height="40" fill="white"/>
</clipPath>
</defs>
</svg>
