<svg width="56" height="57" viewBox="0 0 56 57" fill="none" xmlns="http://www.w3.org/2000/svg">
<path d="M49 28.5C49 23.6788 47.4367 19.2138 44.3334 15.1525V41.8712C47.4367 37.9287 49 33.4637 49 28.5ZM41.1367 45.125H14.8867C16.4734 46.4313 18.55 47.5 21.1167 48.4737C23.66 49.4 25.97 49.875 28 49.875C30.0534 49.875 32.34 49.4 34.8834 48.4737C37.45 47.5 39.5267 46.4313 41.1367 45.125ZM25.6667 40.375L16.3334 21.375V40.375H25.6667ZM39.6667 21.375L30.3334 40.375H39.6667V21.375ZM28 34.5087L36.75 16.625H19.25L28 34.5087V34.5087ZM41.1367 11.875C37.2634 8.71625 32.8767 7.125 28 7.125C23.1234 7.125 18.7367 8.71625 14.8867 11.875H41.1367ZM11.6667 41.8712V15.1525C8.56337 19.2138 7.00004 23.6788 7.00004 28.5C7.00004 33.4637 8.56337 37.9287 11.6667 41.8712ZM53.6667 28.5C53.6667 35.6962 51.1934 41.8713 46.1534 46.9775C41.1367 52.1075 35.07 54.625 28 54.625C20.93 54.625 14.8867 52.1075 9.84671 46.9775C4.80671 41.8713 2.33337 35.6962 2.33337 28.5C2.33337 21.3038 4.80671 15.1525 9.84671 10.0225C14.8867 4.8925 20.93 2.375 28 2.375C35.07 2.375 41.1367 4.8925 46.1534 10.0225C51.1934 15.1525 53.6667 21.3038 53.6667 28.5Z" fill="white"/>
</svg>
