<svg width="56" height="61" viewBox="0 0 56 61" fill="none" xmlns="http://www.w3.org/2000/svg">
<path d="M16.3333 33.0417H6.99996C5.71663 33.0417 4.66663 31.8979 4.66663 30.5C4.66663 29.1021 5.71663 27.9583 6.99996 27.9583H16.3333C17.6166 27.9583 18.6666 29.1021 18.6666 30.5C18.6666 31.8979 17.6166 33.0417 16.3333 33.0417ZM14 20.3333C14 18.9354 12.95 17.7917 11.6666 17.7917H9.33329C8.04996 17.7917 6.99996 18.9354 6.99996 20.3333C6.99996 21.7313 8.04996 22.875 9.33329 22.875H11.6666C12.95 22.875 14 21.7313 14 20.3333ZM51.3333 30.5C51.3333 37.515 46.1066 43.2083 39.6666 43.2083H9.33329C8.04996 43.2083 6.99996 42.0646 6.99996 40.6667C6.99996 39.2688 8.04996 38.125 9.33329 38.125H30.3333C29.3533 36.6508 28.5833 34.9225 28.2333 33.0417H23.3333C22.05 33.0417 21 31.8979 21 30.5C21 29.1021 22.05 27.9583 23.3333 27.9583H28.2333C28.5833 26.0775 29.3533 24.3492 30.3333 22.875H18.6666C17.3833 22.875 16.3333 21.7313 16.3333 20.3333C16.3333 18.9354 17.3833 17.7917 18.6666 17.7917H39.6666C46.1066 17.7917 51.3333 23.485 51.3333 30.5Z" fill="white"/>
</svg>
