<svg width="41" height="43" viewBox="0 0 41 43" fill="none" xmlns="http://www.w3.org/2000/svg">
<path d="M36.967 30.0389V35.2337C36.9689 35.716 36.875 36.1933 36.6913 36.6352C36.5076 37.0771 36.2383 37.4737 35.9005 37.7997C35.5627 38.1257 35.1638 38.3739 34.7296 38.5284C34.2953 38.6829 33.8351 38.7403 33.3785 38.6969C28.3132 38.1179 23.4477 36.2972 19.1728 33.3809C15.1955 30.7223 11.8235 27.1751 9.29623 22.9913C6.5143 18.4739 4.78305 13.3307 4.24273 7.97831C4.2016 7.49946 4.25569 7.01685 4.40158 6.56121C4.54746 6.10556 4.78194 5.68686 5.09008 5.33176C5.39822 4.97667 5.77327 4.69295 6.19136 4.49869C6.60944 4.30443 7.0614 4.20387 7.51845 4.20341H12.4567C13.2556 4.19514 14.03 4.49273 14.6358 5.0407C15.2415 5.58867 15.6371 6.34964 15.7489 7.18177C15.9573 8.84422 16.3439 10.4765 16.9012 12.0476C17.1226 12.6674 17.1706 13.3409 17.0393 13.9885C16.908 14.636 16.603 15.2304 16.1604 15.7013L14.0699 17.9004C16.4132 22.2355 19.8254 25.825 23.9464 28.29L26.037 26.0909C26.4845 25.6253 27.0496 25.3045 27.6651 25.1663C28.2807 25.0282 28.921 25.0787 29.5102 25.3116C31.0037 25.8979 32.5554 26.3045 34.1357 26.5238C34.9353 26.6424 35.6656 27.0661 36.1876 27.7142C36.7097 28.3623 36.987 29.1897 36.967 30.0389Z" stroke="white" stroke-linecap="round" stroke-linejoin="round"/>
</svg>
